<?xml version="1.0" standalone="no"?>
<!DOCTYPE svg PUBLIC "-//W3C//DTD SVG 20010904//EN"
 "http://www.w3.org/TR/2001/REC-SVG-20010904/DTD/svg10.dtd">
<svg version="1.0" xmlns="http://www.w3.org/2000/svg"
 width="579.000000pt" height="453.000000pt" viewBox="0 0 579.000000 453.000000"
 preserveAspectRatio="xMidYMid meet">

<g transform="translate(0.000000,453.000000) scale(0.100000,-0.100000)"
fill="#000000" stroke="none">
<path d="M2486 4424 c-20 -19 -21 -74 -3 -99 10 -13 21 -16 40 -11 23 5 27 12
27 41 0 31 -3 36 -30 42 -24 4 -28 8 -19 19 6 7 20 15 32 17 18 4 18 4 -5 6
-15 0 -34 -6 -42 -15z m48 -57 c8 -12 7 -21 -6 -33 -20 -20 -38 -11 -38 20 0
39 23 46 44 13z"/>
<path d="M935 4420 c-4 -7 2 -9 17 -5 28 7 62 -21 37 -29 -41 -13 -43 -14 -21
-15 27 -1 41 -29 21 -42 -8 -5 -25 -7 -37 -4 -15 4 -21 2 -17 -5 7 -12 45 -13
62 -2 15 9 15 95 -1 104 -16 11 -54 10 -61 -2z"/>
<path d="M1060 4394 c43 -16 44 -17 15 -23 -24 -5 -30 -11 -30 -31 0 -21 5
-25 33 -26 33 -1 33 0 30 40 -3 38 -5 41 -33 43 -16 1 -23 0 -15 -3z m40 -43
c0 -5 -7 -14 -15 -21 -18 -15 -42 1 -31 19 8 13 46 15 46 2z"/>
<path d="M1140 4356 c0 -44 1 -46 29 -46 29 0 57 21 44 34 -4 4 -8 17 -8 29 0
17 -7 23 -32 25 -33 3 -33 3 -33 -42z m53 19 c1 -5 -6 -11 -15 -13 -11 -2 -18
3 -18 13 0 17 30 18 33 0z m0 -40 c1 -5 -6 -11 -15 -13 -11 -2 -18 3 -18 13 0
17 30 18 33 0z"/>
<path d="M1240 4355 c0 -50 11 -57 34 -23 20 28 20 50 1 24 -14 -19 -15 -18
-15 12 0 18 -4 32 -10 32 -5 0 -10 -20 -10 -45z"/>
<path d="M1297 4393 c-7 -13 5 -83 14 -83 5 0 9 20 9 45 0 40 -11 58 -23 38z"/>
<path d="M1356 4384 c-9 -8 -16 -22 -16 -29 0 -21 29 -45 53 -45 21 0 21 1 -3
13 -14 7 -25 21 -25 32 0 11 11 25 25 32 24 12 24 13 3 13 -12 0 -29 -7 -37
-16z"/>
<path d="M1440 4355 c0 -53 13 -57 40 -12 l20 32 0 -32 c0 -18 5 -33 10 -33 6
0 10 20 10 45 0 53 -13 57 -40 13 l-20 -33 0 33 c0 17 -4 32 -10 32 -5 0 -10
-20 -10 -45z"/>
<path d="M1551 4353 c2 -46 2 -46 8 -13 6 34 7 34 19 13 7 -13 17 -23 22 -23
5 0 12 10 16 23 7 20 9 19 15 -13 6 -33 6 -33 8 13 1 53 -10 61 -28 20 l-13
-28 -14 28 c-22 41 -34 33 -33 -20z"/>
<path d="M1680 4386 c-28 -35 11 -93 48 -70 35 22 22 84 -18 84 -10 0 -23 -7
-30 -14z m54 -19 c8 -13 6 -21 -7 -34 -17 -17 -19 -17 -32 1 -10 14 -11 24 -4
38 12 22 27 20 43 -5z"/>
<path d="M1782 4388 c-29 -29 -7 -78 35 -78 13 0 23 4 23 8 0 5 -10 8 -22 8
-19 -1 -23 4 -23 29 0 25 4 30 23 29 12 0 22 3 22 8 0 12 -44 10 -58 -4z"/>
<path d="M1873 4393 c12 -3 17 -15 17 -44 0 -21 5 -39 10 -39 6 0 10 18 10 39
0 33 4 40 23 44 12 2 0 4 -28 4 -27 1 -42 -1 -32 -4z"/>
<path d="M1960 4354 l0 -45 38 3 c29 2 37 7 37 23 0 14 -8 21 -27 23 -20 2
-28 9 -28 23 0 10 -4 19 -10 19 -5 0 -10 -21 -10 -46z m60 -19 c0 -8 -9 -15
-20 -15 -11 0 -20 7 -20 15 0 8 9 15 20 15 11 0 20 -7 20 -15z"/>
<path d="M2120 4386 c-28 -35 11 -93 48 -70 35 22 22 84 -18 84 -10 0 -23 -7
-30 -14z m54 -19 c8 -12 7 -21 -6 -33 -20 -20 -38 -11 -38 20 0 39 23 46 44
13z"/>
<path d="M2222 4358 l-2 -48 60 0 60 0 0 45 c0 25 -4 45 -10 45 -5 0 -10 -18
-10 -40 0 -29 -4 -40 -15 -40 -11 0 -15 11 -15 40 0 22 -4 40 -10 40 -5 0 -10
-18 -10 -40 0 -33 -3 -40 -19 -40 -16 0 -21 8 -24 43 l-4 42 -1 -47z"/>
<path d="M2371 4358 c-1 -56 11 -61 36 -15 l18 32 3 -32 c5 -49 22 -40 22 12
0 54 -17 59 -44 12 l-20 -32 -7 35 c-6 34 -6 33 -8 -12z"/>
<path d="M2582 4355 c-1 -40 1 -45 8 -27 11 27 21 28 38 2 7 -11 17 -20 23
-20 6 0 1 12 -10 27 -20 24 -20 27 -5 45 10 10 13 18 7 18 -5 0 -18 -9 -29
-21 l-19 -21 -6 24 c-5 15 -7 7 -7 -27z"/>
<path d="M2680 4354 c0 -32 4 -44 13 -41 6 2 12 9 11 15 -1 7 -2 26 -2 42 -3
48 -22 34 -22 -16z"/>
<path d="M2726 4378 c-20 -28 -20 -50 -1 -24 14 19 15 18 15 -12 0 -18 5 -32
10 -32 6 0 10 20 10 45 0 50 -11 57 -34 23z"/>
<path d="M2839 4379 c-16 -31 3 -69 36 -69 17 0 29 8 36 24 15 32 -4 66 -36
66 -15 0 -29 -9 -36 -21z m56 -25 c0 -22 -5 -29 -20 -29 -24 0 -34 43 -13 56
21 14 33 4 33 -27z"/>
<path d="M2947 4393 c18 -3 23 -13 26 -46 l4 -42 1 42 c2 35 6 42 25 46 12 2
0 4 -28 4 -27 0 -40 -2 -28 -4z"/>
<path d="M3090 4355 c0 -25 5 -45 10 -45 6 0 10 9 10 20 0 11 4 20 10 20 5 0
14 -9 20 -20 6 -11 15 -20 21 -20 6 0 1 13 -10 29 -18 25 -19 30 -6 41 9 7 13
15 10 18 -3 3 -14 -3 -25 -13 -18 -16 -20 -16 -20 -2 0 10 -4 17 -10 17 -5 0
-10 -20 -10 -45z"/>
<path d="M3200 4386 c-28 -35 11 -93 48 -70 35 22 22 84 -18 84 -10 0 -23 -7
-30 -14z m45 -32 c0 -32 -21 -39 -38 -12 -8 12 -7 21 3 32 19 24 35 14 35 -20z"/>
<path d="M3310 4371 c0 -17 -4 -33 -10 -36 -15 -10 -12 -25 4 -19 8 3 16 20
18 37 5 48 32 42 39 -8 l6 -40 2 48 c1 46 0 47 -29 47 -27 0 -30 -3 -30 -29z"/>
<path d="M3460 4355 c0 -46 0 -46 33 -43 30 3 32 5 32 43 0 38 -2 40 -32 43
-33 3 -33 3 -33 -43z m50 20 c0 -8 -7 -15 -15 -15 -8 0 -15 7 -15 15 0 8 7 15
15 15 8 0 15 -7 15 -15z m3 -40 c1 -5 -6 -11 -15 -13 -11 -2 -18 3 -18 13 0
17 30 18 33 0z"/>
<path d="M3565 4390 c-3 -6 1 -7 9 -4 9 3 24 3 34 -2 14 -6 11 -8 -13 -13 -24
-5 -30 -11 -30 -31 0 -21 5 -25 33 -26 31 -1 32 1 32 36 0 25 -5 40 -16 44
-23 9 -42 7 -49 -4z m55 -39 c0 -5 -7 -14 -15 -21 -18 -15 -42 1 -31 19 8 13
46 15 46 2z"/>
<path d="M3710 4355 c0 -25 5 -45 10 -45 6 0 10 18 10 39 0 36 3 40 28 44 22
3 20 4 -10 6 l-38 1 0 -45z"/>
<path d="M3820 4371 c0 -17 -4 -33 -10 -36 -15 -10 -12 -25 4 -19 8 3 16 20
18 37 5 48 32 42 39 -8 l6 -40 2 48 c1 46 0 47 -29 47 -27 0 -30 -3 -30 -29z"/>
<path d="M3915 4390 c-3 -6 1 -7 9 -4 9 3 24 3 34 -2 14 -6 11 -8 -13 -13 -24
-5 -30 -11 -30 -31 0 -21 5 -25 33 -26 31 -1 32 1 32 36 0 25 -5 40 -16 44
-23 9 -42 7 -49 -4z m55 -39 c0 -5 -7 -14 -15 -21 -18 -15 -42 1 -31 19 8 13
46 15 46 2z"/>
<path d="M4010 4356 c0 -44 1 -46 29 -46 29 0 57 21 44 34 -4 4 -8 17 -8 29 0
17 -7 23 -32 25 -33 3 -33 3 -33 -42z m53 19 c1 -5 -6 -11 -15 -13 -11 -2 -18
3 -18 13 0 17 30 18 33 0z m0 -40 c1 -5 -6 -11 -15 -13 -11 -2 -18 3 -18 13 0
17 30 18 33 0z"/>
<path d="M4110 4355 c0 -25 5 -45 10 -45 6 0 10 9 10 20 0 13 7 20 20 20 13 0
20 -7 20 -20 0 -11 5 -20 10 -20 6 0 10 20 10 45 0 25 -4 45 -10 45 -5 0 -10
-9 -10 -20 0 -13 -7 -20 -20 -20 -13 0 -20 7 -20 20 0 11 -4 20 -10 20 -5 0
-10 -20 -10 -45z"/>
<path d="M4220 4354 c0 -45 0 -45 33 -42 24 2 32 8 32 23 0 13 -8 21 -22 23
-15 2 -23 10 -23 23 0 10 -4 19 -10 19 -5 0 -10 -21 -10 -46z m53 -19 c1 -5
-6 -11 -15 -13 -11 -2 -18 3 -18 13 0 17 30 18 33 0z"/>
<path d="M4313 4355 c0 -27 2 -38 4 -22 2 15 2 37 0 50 -2 12 -4 0 -4 -28z"/>
<path d="M4362 4375 c9 -21 8 -28 -7 -45 -10 -11 -13 -20 -8 -20 6 0 16 7 23
15 12 14 15 14 30 0 25 -22 36 -18 14 6 -15 16 -16 24 -6 39 18 29 15 35 -8
15 -18 -16 -20 -16 -26 -1 -3 9 -10 16 -15 16 -5 0 -3 -11 3 -25z"/>
<path d="M4500 4355 c0 -25 5 -45 10 -45 6 0 10 9 10 20 0 11 4 20 10 20 5 0
15 -9 22 -20 7 -11 16 -20 21 -20 4 0 0 12 -10 26 -13 21 -14 30 -5 45 15 23
5 25 -20 2 -17 -15 -18 -15 -18 0 0 10 -4 17 -10 17 -5 0 -10 -20 -10 -45z"/>
<path d="M4610 4386 c-28 -35 11 -93 48 -70 35 22 22 84 -18 84 -10 0 -23 -7
-30 -14z m49 -15 c7 -13 6 -24 -3 -37 -12 -15 -16 -16 -30 -5 -19 16 -20 33
-4 49 17 17 26 15 37 -7z"/>
<path d="M4700 4355 c0 -51 20 -63 21 -12 0 30 1 31 11 10 13 -28 24 -29 37
-5 9 14 10 13 11 -10 0 -16 5 -28 10 -28 6 0 10 20 10 45 0 51 -13 58 -34 18
l-14 -28 -13 28 c-19 43 -39 34 -39 -18z"/>
<path d="M4830 4355 c0 -25 5 -45 10 -45 6 0 10 18 10 40 0 33 3 40 20 40 17
0 20 -7 20 -40 0 -22 5 -40 10 -40 6 0 10 20 10 45 l0 45 -40 0 -40 0 0 -45z"/>
<path d="M4939 4379 c-16 -31 3 -69 36 -69 17 0 29 8 36 24 15 32 -4 66 -36
66 -15 0 -29 -9 -36 -21z m56 -25 c0 -22 -5 -29 -20 -29 -24 0 -34 43 -13 56
21 14 33 4 33 -27z"/>
<path d="M5040 4355 c0 -25 5 -45 10 -45 6 0 10 9 10 20 0 13 7 20 20 20 13 0
20 -7 20 -20 0 -11 5 -20 10 -20 6 0 10 20 10 45 0 25 -4 45 -10 45 -5 0 -10
-9 -10 -20 0 -13 -7 -20 -20 -20 -13 0 -20 7 -20 20 0 11 -4 20 -10 20 -5 0
-10 -20 -10 -45z"/>
<path d="M5156 4384 c-9 -8 -16 -22 -16 -29 0 -21 29 -45 56 -45 13 0 24 5 24
11 0 5 -5 7 -10 4 -13 -8 -50 4 -50 16 0 5 16 9 35 9 36 0 46 15 23 38 -17 17
-44 15 -62 -4z m52 -12 c2 -7 -7 -12 -22 -12 -27 0 -35 15 -13 23 17 7 30 3
35 -11z"/>
<path d="M5250 4355 c0 -25 5 -45 10 -45 6 0 10 9 10 20 0 28 38 26 50 -2 7
-18 9 -12 8 27 0 28 -3 40 -5 28 -6 -31 -53 -33 -53 -3 0 11 -4 20 -10 20 -5
0 -10 -20 -10 -45z"/>
<path d="M5367 4393 c18 -3 23 -13 26 -46 l4 -42 1 42 c2 35 6 42 25 46 12 2
0 4 -28 4 -27 0 -40 -2 -28 -4z"/>
<path d="M3403 4353 c9 -2 23 -2 30 0 6 3 -1 5 -18 5 -16 0 -22 -2 -12 -5z"/>
<path d="M700 4081 l0 -150 -27 -4 -28 -4 28 -2 27 -1 0 -264 0 -265 -27 -4
-28 -4 28 -2 27 -1 0 -269 0 -270 -27 -4 -28 -4 28 -2 27 -1 0 -264 0 -265
-27 -4 -28 -4 28 -2 27 -1 0 -269 0 -270 -27 -4 -28 -4 28 -2 27 -1 0 -269 0
-270 -27 -4 -28 -4 28 -2 27 -1 0 -264 0 -265 -27 -4 -28 -4 28 -2 c27 -1 27
-2 27 -66 l0 -65 364 0 365 0 4 -28 4 -27 2 28 1 27 409 0 410 0 4 -27 4 -28
2 28 1 27 414 0 415 0 4 -27 4 -28 2 28 1 27 409 0 410 0 4 -27 4 -28 2 28 1
27 414 0 415 0 4 -27 4 -28 2 28 1 27 409 0 410 0 4 -27 4 -28 2 28 c1 23 5
27 31 27 l30 0 0 1855 0 1855 -2485 0 -2485 0 0 -149z m4960 -1706 l0 -1845
-2475 0 -2475 0 0 1845 0 1845 2475 0 2475 0 0 -1845z"/>
<path d="M2076 3998 c-9 -40 -47 -206 -84 -368 l-67 -295 -85 -3 -85 -3 -75
-95 c-41 -53 -77 -97 -81 -100 -4 -2 -42 41 -85 96 -42 55 -81 100 -84 100 -4
0 -44 -188 -90 -417 l-83 -418 -84 -213 -84 -212 -84 -687 c-75 -608 -88 -734
-71 -682 2 8 41 318 86 689 l82 675 84 210 84 210 79 404 c44 222 82 405 85
408 2 2 39 -39 81 -91 56 -69 81 -94 89 -87 7 6 46 53 87 105 l74 95 86 1 85
0 63 278 c35 152 72 316 83 365 l20 87 84 0 c83 0 84 0 162 -50 65 -41 94 -69
162 -155 46 -58 89 -104 95 -101 7 2 44 25 84 50 l71 46 168 0 168 0 88 55 87
55 167 0 167 0 80 50 79 50 49 -93 c27 -50 65 -120 84 -154 l34 -63 83 0 82 0
88 -55 87 -55 167 0 166 0 84 -51 83 -51 80 51 c44 28 83 51 85 51 3 0 40 -22
83 -50 43 -27 81 -50 84 -50 4 0 42 23 85 50 l79 50 86 0 c51 0 87 4 87 10 0
6 -35 10 -85 10 -84 0 -85 0 -163 -50 -43 -27 -83 -50 -88 -50 -6 0 -45 22
-88 50 -44 27 -84 46 -90 43 -6 -4 -41 -26 -79 -50 -37 -24 -72 -43 -78 -43
-5 0 -45 23 -88 50 l-78 50 -168 0 -168 0 -78 50 c-77 48 -80 49 -165 52 l-86
3 -80 150 c-43 83 -82 153 -86 157 -4 4 -45 -17 -92 -47 l-85 -55 -168 0 -167
0 -80 -50 -80 -50 -167 0 -168 0 -78 -50 c-43 -28 -81 -50 -85 -50 -4 0 -42
45 -85 99 -66 85 -91 108 -166 155 l-88 56 -86 0 -85 0 -16 -72z"/>
<path d="M322 3968 c-17 -17 -15 -63 4 -79 22 -18 48 0 52 35 6 45 -29 71 -56
44z m38 -18 c11 -21 -2 -60 -20 -60 -5 0 -12 9 -15 20 -7 23 2 60 15 60 5 0
14 -9 20 -20z"/>
<path d="M444 3965 c-4 -9 -4 -19 0 -22 3 -3 1 -12 -5 -20 -16 -18 7 -45 35
-41 18 3 21 10 21 48 0 39 -3 45 -23 48 -13 2 -25 -3 -28 -13z m39 -10 c1 -5
-6 -11 -15 -13 -11 -2 -18 3 -18 13 0 17 30 18 33 0z m2 -45 c0 -8 -8 -16 -17
-18 -13 -2 -18 3 -18 18 0 15 5 20 18 18 9 -2 17 -10 17 -18z"/>
<path d="M531 3966 c-8 -9 -9 -16 -2 -21 7 -4 6 -13 -2 -26 -10 -16 -9 -21 3
-29 8 -6 24 -9 35 -8 17 3 20 10 20 48 0 38 -4 45 -21 48 -11 2 -26 -4 -33
-12z m39 -11 c0 -8 -7 -15 -15 -15 -8 0 -15 7 -15 15 0 8 7 15 15 15 8 0 15
-7 15 -15z m5 -45 c0 -8 -8 -16 -17 -18 -13 -2 -18 3 -18 18 0 15 5 20 18 18
9 -2 17 -10 17 -18z"/>
<path d="M390 3890 c0 -5 5 -10 10 -10 6 0 10 5 10 10 0 6 -4 10 -10 10 -5 0
-10 -4 -10 -10z"/>
<path d="M322 3418 c-17 -17 -15 -63 4 -79 22 -18 48 0 52 35 6 45 -29 71 -56
44z m38 -18 c11 -21 -2 -60 -20 -60 -5 0 -12 9 -15 20 -7 23 2 60 15 60 5 0
14 -9 20 -20z"/>
<path d="M444 3415 c-4 -9 -4 -19 0 -22 3 -3 1 -12 -5 -20 -16 -18 7 -45 35
-41 18 3 21 10 21 48 0 39 -3 45 -23 48 -13 2 -25 -3 -28 -13z m39 -10 c1 -5
-6 -11 -15 -13 -11 -2 -18 3 -18 13 0 17 30 18 33 0z m2 -45 c0 -8 -8 -16 -17
-18 -13 -2 -18 3 -18 18 0 15 5 20 18 18 9 -2 17 -10 17 -18z"/>
<path d="M530 3411 c-23 -45 3 -96 38 -74 25 15 21 46 -8 60 l-24 12 24 10
c24 9 24 10 3 10 -12 1 -27 -8 -33 -18z m47 -37 c8 -21 -13 -42 -28 -27 -13
13 -5 43 11 43 6 0 13 -7 17 -16z"/>
<path d="M390 3340 c0 -5 5 -10 10 -10 6 0 10 5 10 10 0 6 -4 10 -10 10 -5 0
-10 -4 -10 -10z"/>
<path d="M322 2878 c-17 -17 -15 -63 4 -79 22 -18 48 0 52 35 6 45 -29 71 -56
44z m38 -18 c11 -21 -2 -60 -20 -60 -5 0 -12 9 -15 20 -7 23 2 60 15 60 5 0
14 -9 20 -20z"/>
<path d="M444 2875 c-4 -9 -4 -19 0 -22 3 -3 1 -12 -5 -20 -16 -18 7 -45 35
-41 18 3 21 10 21 48 0 39 -3 45 -23 48 -13 2 -25 -3 -28 -13z m39 -10 c1 -5
-6 -11 -15 -13 -11 -2 -18 3 -18 13 0 17 30 18 33 0z m2 -45 c0 -8 -8 -16 -17
-18 -13 -2 -18 3 -18 18 0 15 5 20 18 18 9 -2 17 -10 17 -18z"/>
<path d="M541 2864 c-26 -33 -26 -44 -1 -44 11 0 20 -7 20 -15 0 -21 18 -19
22 3 5 26 -3 82 -12 82 -5 0 -18 -12 -29 -26z m19 -14 c0 -11 -7 -20 -15 -20
-13 0 -13 3 -3 20 7 11 14 20 15 20 2 0 3 -9 3 -20z"/>
<path d="M390 2800 c0 -5 5 -10 10 -10 6 0 10 5 10 10 0 6 -4 10 -10 10 -5 0
-10 -4 -10 -10z"/>
<path d="M157 2684 c-4 -4 -7 -15 -7 -25 0 -10 -8 -20 -17 -22 -10 -3 1 -5 25
-6 42 -1 43 0 40 26 -3 27 -26 41 -41 27z m33 -30 c0 -8 -7 -14 -15 -14 -15 0
-21 21 -9 33 10 9 24 -2 24 -19z"/>
<path d="M122 2575 c0 -22 2 -32 5 -23 3 11 17 18 41 21 l37 4 -37 1 c-25 1
-38 7 -41 20 -3 9 -5 -1 -5 -23z"/>
<path d="M121 2513 c-2 -25 12 -43 33 -43 26 0 46 18 45 40 0 9 -4 6 -9 -7 -6
-14 -18 -23 -30 -23 -12 0 -24 9 -30 23 -5 12 -9 17 -9 10z"/>
<path d="M132 2441 c-18 -11 -12 -41 11 -55 12 -8 22 -8 35 0 35 22 23 64 -18
64 -8 0 -21 -4 -28 -9z m53 -21 c0 -18 -33 -26 -47 -12 -6 6 -7 15 -3 22 10
16 50 8 50 -10z"/>
<path d="M133 2353 c9 -2 17 -13 17 -23 0 -10 -8 -21 -17 -23 -10 -3 2 -5 27
-4 25 0 35 2 23 4 -14 3 -23 12 -23 23 0 11 9 20 23 23 12 2 2 4 -23 4 -25 1
-37 -1 -27 -4z"/>
<path d="M322 2328 c-17 -17 -15 -63 4 -79 22 -18 48 0 52 35 6 45 -29 71 -56
44z m38 -18 c11 -21 -2 -60 -20 -60 -13 0 -22 37 -15 60 3 11 10 20 15 20 5 0
14 -9 20 -20z"/>
<path d="M444 2325 c-4 -9 -4 -19 0 -22 3 -3 1 -12 -5 -20 -16 -18 7 -45 35
-41 18 3 21 10 21 48 0 39 -3 45 -23 48 -13 2 -25 -3 -28 -13z m39 -10 c1 -5
-6 -11 -15 -13 -11 -2 -18 3 -18 13 0 17 30 18 33 0z m2 -45 c0 -8 -8 -16 -17
-18 -13 -2 -18 3 -18 18 0 15 5 20 18 18 9 -2 17 -10 17 -18z"/>
<path d="M526 2332 c-3 -5 4 -8 16 -8 31 1 32 -18 3 -53 l-27 -31 39 1 c31 2
33 3 9 6 l-28 5 22 23 c12 13 20 31 18 42 -3 19 -42 31 -52 15z"/>
<path d="M138 2263 c12 -2 22 -11 22 -19 0 -8 -10 -19 -22 -24 -23 -10 -23
-10 2 -7 17 1 26 9 28 24 2 12 11 24 20 26 9 3 -3 5 -28 4 -25 0 -35 -2 -22
-4z"/>
<path d="M390 2250 c0 -5 5 -10 10 -10 6 0 10 5 10 10 0 6 -4 10 -10 10 -5 0
-10 -4 -10 -10z"/>
<path d="M127 2184 c-28 -28 17 -73 54 -54 32 17 22 54 -16 58 -17 2 -34 0
-38 -4z m58 -24 c0 -18 -33 -26 -47 -12 -6 6 -7 15 -3 22 10 16 50 8 50 -10z"/>
<path d="M103 2075 c0 -27 2 -40 4 -28 4 18 12 23 51 26 l47 3 -47 2 c-40 2
-47 5 -51 25 -2 12 -4 0 -4 -28z"/>
<path d="M322 1778 c-17 -17 -15 -63 4 -79 22 -18 48 0 52 35 6 45 -29 71 -56
44z m38 -18 c11 -21 -2 -60 -20 -60 -5 0 -12 9 -15 20 -7 23 2 60 15 60 5 0
14 -9 20 -20z"/>
<path d="M444 1775 c-4 -9 -4 -19 0 -22 3 -3 1 -12 -5 -20 -16 -18 7 -45 35
-41 18 3 21 10 21 48 0 39 -3 45 -23 48 -13 2 -25 -3 -28 -13z m39 -10 c1 -5
-6 -11 -15 -13 -11 -2 -18 3 -18 13 0 17 30 18 33 0z m2 -45 c0 -8 -8 -16 -17
-18 -13 -2 -18 3 -18 18 0 15 5 20 18 18 9 -2 17 -10 17 -18z"/>
<path d="M532 1778 c-17 -17 -15 -63 4 -79 22 -18 48 0 52 35 6 45 -29 71 -56
44z m43 -18 c8 -26 -3 -60 -20 -60 -17 0 -28 34 -20 60 3 11 12 20 20 20 8 0
17 -9 20 -20z"/>
<path d="M390 1700 c0 -5 5 -10 10 -10 6 0 10 5 10 10 0 6 -4 10 -10 10 -5 0
-10 -4 -10 -10z"/>
<path d="M322 1238 c-17 -17 -15 -63 4 -79 22 -18 48 0 52 35 6 45 -29 71 -56
44z m38 -18 c11 -21 -2 -60 -20 -60 -5 0 -12 9 -15 20 -7 23 2 60 15 60 5 0
14 -9 20 -20z"/>
<path d="M453 1243 c32 -5 31 -3 12 -50 -8 -20 -13 -38 -10 -41 4 -4 45 81 45
94 0 2 -17 3 -37 3 -31 -2 -33 -3 -10 -6z"/>
<path d="M531 1236 c-8 -9 -9 -16 -2 -21 7 -4 6 -13 -2 -26 -10 -16 -9 -21 3
-29 8 -6 24 -9 35 -8 17 3 20 10 20 48 0 38 -4 45 -21 48 -11 2 -26 -4 -33
-12z m39 -11 c0 -8 -7 -15 -15 -15 -8 0 -15 7 -15 15 0 8 7 15 15 15 8 0 15
-7 15 -15z m5 -45 c0 -8 -8 -16 -17 -18 -13 -2 -18 3 -18 18 0 15 5 20 18 18
9 -2 17 -10 17 -18z"/>
<path d="M390 1160 c0 -5 5 -10 10 -10 6 0 10 5 10 10 0 6 -4 10 -10 10 -5 0
-10 -4 -10 -10z"/>
<path d="M322 688 c-17 -17 -15 -63 4 -79 22 -18 48 0 52 35 6 45 -29 71 -56
44z m38 -18 c11 -21 -2 -60 -20 -60 -5 0 -12 9 -15 20 -7 23 2 60 15 60 5 0
14 -9 20 -20z"/>
<path d="M453 693 c32 -5 31 -3 12 -50 -8 -20 -13 -38 -10 -41 4 -4 45 81 45
94 0 2 -17 3 -37 3 -31 -2 -33 -3 -10 -6z"/>
<path d="M530 681 c-23 -45 3 -96 38 -74 25 15 21 46 -8 60 l-24 12 24 10 c24
9 24 10 3 10 -12 1 -27 -8 -33 -18z m47 -37 c8 -21 -13 -42 -28 -27 -13 13 -5
43 11 43 6 0 13 -7 17 -16z"/>
<path d="M390 610 c0 -5 5 -10 10 -10 6 0 10 5 10 10 0 6 -4 10 -10 10 -5 0
-10 -4 -10 -10z"/>
<path d="M1400 401 c0 -13 8 -21 23 -23 31 -4 31 -43 0 -42 -13 0 -23 -3 -23
-8 0 -15 49 -8 59 9 11 21 -3 53 -24 53 -24 0 -17 18 8 23 16 3 13 5 -10 6
-26 1 -33 -3 -33 -18z"/>
<path d="M2200 409 c0 -5 5 -7 10 -4 6 4 10 -10 10 -34 0 -22 -5 -42 -12 -44
-7 -3 3 -5 22 -5 19 0 27 2 18 5 -14 3 -18 15 -18 49 0 32 -4 44 -15 44 -8 0
-15 -5 -15 -11z"/>
<path d="M2274 395 c-10 -39 3 -75 26 -75 29 0 47 42 32 75 -7 15 -20 25 -32
25 -13 0 -22 -9 -26 -25z m41 -26 c0 -24 -5 -34 -15 -34 -16 0 -25 37 -16 62
10 26 31 8 31 -28z"/>
<path d="M3040 409 c0 -5 5 -7 10 -4 6 4 10 -10 10 -34 0 -22 -5 -42 -12 -44
-7 -3 3 -5 22 -5 19 0 27 2 18 5 -14 3 -18 15 -18 49 0 32 -4 44 -15 44 -8 0
-15 -5 -15 -11z"/>
<path d="M3110 401 c0 -13 8 -21 23 -23 14 -2 22 -10 22 -23 0 -14 -6 -20 -22
-19 -13 0 -23 -3 -23 -8 0 -5 12 -8 28 -6 21 2 28 9 30 31 3 22 -1 30 -17 34
-28 7 -27 21 2 26 16 3 13 5 -10 6 -26 1 -33 -3 -33 -18z"/>
<path d="M3866 412 c-3 -6 2 -8 13 -5 31 8 35 -17 7 -46 -34 -35 -33 -41 7
-40 25 1 27 3 9 6 l-24 5 22 23 c12 13 20 31 18 42 -3 19 -42 30 -52 15z"/>
<path d="M3954 395 c-10 -39 3 -75 26 -75 29 0 47 42 32 75 -7 15 -20 25 -32
25 -13 0 -22 -9 -26 -25z m41 -26 c0 -24 -5 -34 -15 -34 -16 0 -25 37 -16 62
10 26 31 8 31 -28z"/>
<path d="M4696 412 c-3 -6 2 -8 13 -5 31 8 35 -17 7 -46 -34 -35 -33 -41 7
-40 25 1 27 3 9 6 l-24 5 22 23 c12 13 20 31 18 42 -3 19 -42 30 -52 15z"/>
<path d="M4780 401 c0 -13 8 -21 23 -23 14 -2 22 -10 22 -23 0 -14 -6 -20 -22
-19 -13 0 -23 -3 -23 -8 0 -5 12 -8 28 -6 21 2 28 9 30 31 3 22 -1 30 -17 34
-28 7 -27 21 2 26 16 3 13 5 -10 6 -26 1 -33 -3 -33 -18z"/>
<path d="M5558 410 c26 -11 29 -30 5 -30 -15 0 -15 -1 2 -13 22 -17 11 -41
-16 -34 -11 3 -19 1 -19 -4 0 -15 46 -10 60 6 6 8 8 20 4 27 -5 7 -8 22 -9 33
0 14 -8 21 -25 22 -25 3 -25 3 -2 -7z"/>
<path d="M5614 395 c-10 -39 3 -75 26 -75 12 0 25 10 32 25 15 33 -3 75 -32
75 -13 0 -22 -9 -26 -25z m41 -26 c0 -24 -5 -34 -15 -34 -16 0 -25 37 -16 62
10 26 31 8 31 -28z"/>
<path d="M2240 180 c0 -27 5 -50 10 -50 6 0 10 8 10 18 0 32 13 34 37 5 12
-16 22 -23 23 -17 0 6 -7 17 -15 24 -19 16 -19 34 0 50 9 7 13 15 10 18 -3 3
-16 -5 -30 -18 l-25 -23 0 21 c0 12 -4 22 -10 22 -5 0 -10 -22 -10 -50z"/>
<path d="M2344 196 c-3 -8 -4 -25 -2 -38 2 -17 9 -23 28 -23 22 0 25 4 25 35
0 29 -4 36 -23 38 -13 2 -24 -3 -28 -12z m41 -26 c0 -27 -22 -39 -31 -16 -8
22 3 49 19 43 6 -2 12 -14 12 -27z"/>
<path d="M2440 182 c0 -15 -6 -34 -12 -41 -11 -11 -10 -13 2 -9 8 3 16 19 18
36 5 46 30 41 35 -5 l4 -38 1 43 c2 39 0 42 -23 42 -21 0 -25 -5 -25 -28z"/>
<path d="M2560 171 c0 -39 2 -41 29 -41 28 0 47 21 33 35 -4 3 -7 14 -7 23 0
11 -10 18 -27 20 -27 3 -28 1 -28 -37z m50 19 c0 -5 -7 -10 -15 -10 -8 0 -15
5 -15 10 0 6 7 10 15 10 8 0 15 -4 15 -10z m0 -35 c0 -8 -7 -15 -15 -15 -8 0
-15 7 -15 15 0 8 7 15 15 15 8 0 15 -7 15 -15z"/>
<path d="M2652 198 c-27 -27 -3 -73 35 -66 27 5 25 72 -2 76 -11 1 -26 -3 -33
-10z m43 -28 c0 -27 -22 -39 -31 -16 -8 22 3 49 19 43 6 -2 12 -14 12 -27z"/>
<path d="M2782 168 l1 -43 4 37 c3 28 9 38 26 41 18 4 17 5 -5 6 -27 1 -28 -1
-26 -41z"/>
<path d="M2860 182 c0 -15 -6 -34 -12 -41 -11 -11 -10 -13 2 -9 8 2 19 19 25
36 12 42 25 41 25 -3 0 -19 5 -35 10 -35 6 0 10 18 10 40 0 38 -2 40 -30 40
-26 0 -30 -4 -30 -28z"/>
<path d="M2970 199 l25 -12 -25 -6 c-36 -10 -34 -46 3 -47 26 -1 28 1 25 35
-3 30 -7 36 -28 38 l-25 3 25 -11z m20 -39 c0 -12 -28 -25 -36 -17 -9 9 6 27
22 27 8 0 14 -5 14 -10z"/>
<path d="M3030 170 c0 -36 3 -40 24 -40 31 0 35 7 29 48 -4 26 -10 32 -29 32
-21 0 -24 -5 -24 -40z m40 20 c0 -5 -7 -10 -15 -10 -8 0 -15 5 -15 10 0 6 7
10 15 10 8 0 15 -4 15 -10z m0 -35 c0 -8 -7 -15 -15 -15 -8 0 -15 7 -15 15 0
8 7 15 15 15 8 0 15 -7 15 -15z"/>
<path d="M3113 170 c0 -25 2 -35 4 -22 3 13 12 22 23 22 11 0 20 -9 23 -22 2
-13 4 -3 4 22 1 25 -1 37 -4 28 -2 -10 -13 -18 -23 -18 -10 0 -21 8 -23 18 -3
9 -5 -3 -4 -28z"/>
<path d="M3201 172 c-1 -42 0 -43 27 -40 34 4 39 41 5 46 -12 2 -24 11 -26 20
-3 9 -5 -2 -6 -26z m42 -17 c1 -5 -6 -11 -15 -13 -11 -2 -18 3 -18 13 0 17 30
18 33 0z"/>
<path d="M3270 170 c0 -22 5 -40 10 -40 6 0 10 18 10 40 0 22 -4 40 -10 40 -5
0 -10 -18 -10 -40z"/>
<path d="M3310 203 c0 -5 5 -14 12 -21 8 -8 8 -15 -2 -27 -7 -8 -10 -18 -7
-22 4 -3 9 2 13 11 6 16 8 16 27 -1 19 -18 20 -17 8 5 -9 17 -9 27 0 45 11 20
11 21 -4 8 -14 -11 -20 -11 -32 -1 -8 7 -15 8 -15 3z"/>
<path d="M3441 170 c0 -38 2 -41 10 -21 l9 23 21 -23 21 -24 -15 26 c-14 24
-14 28 1 43 9 9 11 16 5 16 -6 0 -17 -7 -24 -16 -12 -14 -14 -14 -20 3 -5 11
-8 2 -8 -27z"/>
<path d="M3524 196 c-3 -8 -4 -25 -2 -38 2 -17 9 -23 28 -23 22 0 25 4 25 35
0 29 -4 36 -23 38 -13 2 -24 -3 -28 -12z m41 -26 c0 -27 -22 -39 -31 -16 -8
22 3 49 19 43 6 -2 12 -14 12 -27z"/>
<path d="M3611 168 c1 -39 2 -40 8 -13 5 24 8 26 13 13 4 -10 12 -18 18 -18 5
0 10 8 10 18 0 14 -2 15 -9 3 -8 -12 -11 -9 -16 12 -11 42 -25 32 -24 -15z"/>
<path d="M3667 203 c-7 -13 5 -73 14 -73 5 0 9 18 9 40 0 36 -12 52 -23 33z"/>
<path d="M3712 168 l1 -43 4 38 c3 29 9 37 24 37 15 0 19 -7 19 -35 0 -19 5
-35 10 -35 6 0 10 18 10 40 0 39 -1 40 -35 40 -35 0 -35 0 -33 -42z"/>
<path d="M3804 196 c-11 -29 1 -61 23 -64 29 -4 48 30 33 58 -12 23 -48 27
-56 6z m41 -26 c0 -27 -22 -39 -31 -16 -8 22 3 49 19 43 6 -2 12 -14 12 -27z"/>
<path d="M3893 170 c0 -25 2 -35 4 -22 3 13 12 22 23 22 11 0 20 -9 23 -22 2
-13 4 -3 4 22 1 25 -1 37 -4 28 -2 -10 -13 -18 -23 -18 -10 0 -21 8 -23 18 -3
9 -5 -3 -4 -28z"/>
<path d="M3980 191 c-15 -29 3 -61 35 -61 14 0 25 4 25 8 0 5 -10 8 -21 8 -12
-1 -24 5 -26 12 -3 7 5 12 22 12 20 0 26 4 23 18 -5 25 -44 27 -58 3z m45 -1
c3 -5 -3 -10 -15 -10 -12 0 -18 5 -15 10 3 6 10 10 15 10 5 0 12 -4 15 -10z"/>
<path d="M4063 203 c12 -3 17 -15 17 -39 0 -19 5 -34 10 -34 6 0 10 15 10 34
0 24 5 36 18 39 9 3 -3 5 -28 5 -25 0 -37 -2 -27 -5z"/>
<path d="M2518 173 c6 -2 18 -2 25 0 6 3 1 5 -13 5 -14 0 -19 -2 -12 -5z"/>
</g>
</svg>
