<?xml version="1.0" standalone="no"?>
<!DOCTYPE svg PUBLIC "-//W3C//DTD SVG 20010904//EN"
 "http://www.w3.org/TR/2001/REC-SVG-20010904/DTD/svg10.dtd">
<svg version="1.0" xmlns="http://www.w3.org/2000/svg"
 width="576.000000pt" height="583.000000pt" viewBox="0 0 576.000000 583.000000"
 preserveAspectRatio="xMidYMid meet">

<g transform="translate(0.000000,583.000000) scale(0.100000,-0.100000)"
fill="#000000" stroke="none">
<path d="M120 5650 c0 -47 4 -80 10 -80 6 0 10 14 10 30 0 22 5 30 18 30 26 0
62 29 62 50 0 29 -28 50 -66 50 l-34 0 0 -80z m74 44 c8 -21 -11 -44 -35 -44
-14 0 -19 7 -19 30 0 25 4 30 24 30 13 0 27 -7 30 -16z"/>
<path d="M255 5680 c-4 -6 7 -10 24 -10 40 0 39 -13 -1 -25 -25 -8 -34 -16
-36 -37 -3 -28 10 -36 66 -36 20 -1 22 4 22 47 0 26 -5 52 -12 59 -15 15 -54
16 -63 2z m53 -67 c-4 -22 -48 -31 -48 -10 0 19 10 27 32 27 13 0 18 -6 16
-17z"/>
<path d="M385 5676 c-11 -8 -18 -26 -18 -46 0 -20 7 -38 18 -46 22 -16 65 -19
65 -4 0 6 -11 10 -25 10 -31 0 -50 32 -35 60 6 12 21 20 35 20 14 0 25 5 25
10 0 15 -43 12 -65 -4z"/>
<path d="M480 5630 c0 -33 4 -60 10 -60 6 0 10 23 10 50 0 49 1 50 30 50 29 0
30 -1 30 -50 0 -27 5 -50 10 -50 6 0 10 27 10 60 l0 60 -50 0 -50 0 0 -60z"/>
<path d="M620 5608 c0 -45 4 -78 10 -78 6 0 10 11 10 25 0 22 3 25 25 19 35
-9 55 11 55 56 0 46 -14 59 -62 57 l-38 -1 0 -78z m75 22 c0 -28 -4 -36 -22
-38 -24 -4 -38 25 -28 59 5 14 14 19 28 17 18 -2 22 -10 22 -38z"/>
<path d="M766 5674 c-9 -8 -16 -28 -16 -44 0 -48 39 -72 87 -53 14 6 8 9 -21
13 -55 7 -60 30 -7 30 34 0 41 3 41 19 0 25 -26 51 -50 51 -10 0 -26 -7 -34
-16z m62 -21 c2 -9 -7 -13 -27 -13 -30 0 -39 9 -24 24 11 10 46 3 51 -11z"/>
<path d="M900 5646 c0 -26 -6 -48 -15 -56 -17 -14 -20 -40 -5 -40 6 0 10 5 10
10 0 15 87 12 93 -2 2 -7 8 -9 13 -5 4 4 3 17 -4 27 -7 11 -12 40 -12 65 l0
45 -40 0 -40 0 0 -44z m60 -16 c0 -35 -3 -40 -23 -40 -20 0 -22 4 -19 40 3 31
8 40 23 40 15 0 19 -7 19 -40z"/>
<path d="M1037 5672 c-37 -40 -9 -102 46 -102 41 0 42 18 0 22 -52 4 -56 28
-4 28 36 0 41 3 41 23 0 46 -52 64 -83 29z m63 -17 c0 -10 -10 -15 -30 -15
-29 0 -38 9 -23 23 13 13 53 7 53 -8z"/>
<path d="M1170 5645 c0 -31 -5 -47 -15 -51 -16 -7 -21 -24 -6 -24 20 0 41 33
41 66 0 27 4 34 20 34 17 0 20 -7 20 -50 0 -27 5 -50 10 -50 6 0 10 27 10 60
l0 60 -40 0 -40 0 0 -45z"/>
<path d="M1297 5672 c-37 -40 -9 -102 46 -102 41 0 42 18 0 22 -52 4 -56 28
-4 28 36 0 41 3 41 23 0 46 -52 64 -83 29z m67 -17 c4 -12 -3 -15 -29 -15 -33
0 -43 8 -28 23 12 13 51 7 57 -8z"/>
<path d="M1410 5630 c0 -33 4 -60 10 -60 6 0 10 11 10 25 0 21 5 25 30 25 25
0 30 -4 30 -25 0 -14 5 -25 10 -25 6 0 10 27 10 60 0 33 -4 60 -10 60 -5 0
-10 -11 -10 -25 0 -21 -5 -25 -30 -25 -25 0 -30 4 -30 25 0 14 -4 25 -10 25
-6 0 -10 -27 -10 -60z"/>
<path d="M1550 5630 c0 -75 16 -79 53 -12 l27 47 0 -47 c0 -27 5 -48 10 -48 6
0 10 27 10 60 0 75 -16 79 -53 13 l-27 -48 0 48 c0 26 -4 47 -10 47 -6 0 -10
-27 -10 -60z"/>
<path d="M1697 5672 c-37 -40 -9 -102 46 -102 41 0 42 18 0 22 -52 4 -56 28
-4 28 36 0 41 3 41 23 0 46 -52 64 -83 29z m63 -17 c0 -10 -10 -15 -30 -15
-29 0 -38 9 -23 23 13 13 53 7 53 -8z"/>
<path d="M1880 5630 c0 -33 4 -60 10 -60 6 0 10 11 10 24 0 37 16 40 40 6 31
-43 45 -37 16 7 l-26 37 22 23 c30 32 10 29 -24 -4 l-28 -27 0 27 c0 15 -4 27
-10 27 -6 0 -10 -27 -10 -60z"/>
<path d="M2026 5645 c-4 -24 -11 -47 -17 -50 -19 -12 -9 -26 11 -15 15 8 20
21 20 50 0 33 3 40 20 40 17 0 20 -7 20 -50 0 -27 5 -50 10 -50 6 0 10 27 10
60 l0 60 -34 0 c-32 0 -34 -2 -40 -45z"/>
<path d="M2145 5680 c-4 -6 6 -10 24 -10 16 0 33 -4 36 -10 3 -5 -3 -10 -13
-10 -11 0 -30 -8 -42 -18 -19 -15 -21 -22 -11 -40 9 -16 20 -21 51 -19 39 1
40 2 40 40 0 54 -15 77 -50 77 -16 0 -32 -4 -35 -10z m63 -67 c-4 -20 -35 -30
-50 -15 -15 15 0 32 28 32 19 0 25 -5 22 -17z"/>
<path d="M2277 5672 c-22 -24 -21 -65 1 -85 21 -19 57 -22 67 -7 4 6 -6 10
-24 10 -33 0 -47 24 -36 60 4 14 15 20 36 20 18 0 28 4 24 10 -10 16 -51 11
-68 -8z"/>
<path d="M2395 5676 c-11 -8 -18 -26 -18 -46 0 -20 7 -38 18 -46 22 -16 65
-19 65 -4 0 6 -11 10 -25 10 -14 0 -29 8 -35 20 -15 28 4 60 35 60 14 0 25 5
25 10 0 15 -43 12 -65 -4z"/>
<path d="M2506 5674 c-34 -33 -10 -104 34 -104 27 0 50 27 50 60 0 33 -23 60
-50 60 -10 0 -26 -7 -34 -16z m59 -44 c0 -31 -3 -35 -25 -35 -19 0 -26 6 -28
23 -5 36 5 54 30 50 19 -2 23 -9 23 -38z"/>
<path d="M2620 5630 c0 -60 0 -60 29 -60 16 0 36 3 45 6 18 7 22 39 6 49 -8 5
-7 11 1 21 17 21 -7 44 -47 44 l-34 0 0 -60z m68 28 c-7 -20 -48 -23 -48 -4 0
11 9 16 26 16 16 0 24 -5 22 -12z m2 -53 c0 -9 -9 -15 -25 -15 -16 0 -25 6
-25 15 0 9 9 15 25 15 16 0 25 -6 25 -15z"/>
<path d="M2810 5630 c0 -33 4 -60 10 -60 6 0 10 23 10 50 0 49 1 50 30 50 29
0 30 -1 30 -50 0 -27 5 -50 10 -50 6 0 10 27 10 60 l0 60 -50 0 -50 0 0 -60z"/>
<path d="M2957 5672 c-46 -51 23 -138 71 -90 16 16 16 80 0 96 -18 18 -53 15
-71 -6z m58 -42 c0 -28 -4 -36 -22 -38 -24 -4 -38 25 -28 59 5 14 14 19 28 17
18 -2 22 -10 22 -38z"/>
<path d="M3140 5630 c0 -33 4 -60 10 -60 6 0 10 23 10 50 0 49 1 50 30 50 17
0 30 5 30 10 0 6 -18 10 -40 10 l-40 0 0 -60z"/>
<path d="M3270 5651 c0 -23 -7 -46 -16 -56 -9 -9 -13 -19 -9 -23 12 -12 45 39
45 69 0 22 5 29 20 29 17 0 20 -7 20 -50 0 -27 5 -50 10 -50 6 0 10 27 10 60
l0 60 -40 0 c-40 0 -40 0 -40 -39z"/>
<path d="M3395 5680 c-4 -6 7 -10 24 -10 40 0 40 -16 1 -24 -65 -12 -49 -70
20 -72 l42 -1 -6 45 c-3 25 -11 51 -17 58 -13 16 -55 19 -64 4z m55 -70 c-12
-22 -50 -27 -50 -7 0 20 10 27 37 27 21 0 22 -3 13 -20z"/>
<path d="M3510 5630 c0 -60 0 -60 29 -60 16 0 36 3 45 6 18 7 22 39 6 49 -8 5
-7 11 1 21 17 21 -7 44 -47 44 l-34 0 0 -60z m68 28 c-7 -20 -48 -23 -48 -4 0
11 9 16 26 16 16 0 24 -5 22 -12z m2 -53 c0 -9 -9 -15 -25 -15 -16 0 -25 6
-25 15 0 9 9 15 25 15 16 0 25 -6 25 -15z"/>
<path d="M3630 5630 c0 -33 4 -60 10 -60 6 0 10 11 10 25 0 21 5 25 30 25 25
0 30 -4 30 -25 0 -14 5 -25 10 -25 6 0 10 27 10 60 0 33 -4 60 -10 60 -5 0
-10 -11 -10 -25 0 -21 -5 -25 -30 -25 -25 0 -30 4 -30 25 0 14 -4 25 -10 25
-6 0 -10 -27 -10 -60z"/>
<path d="M3770 5630 c0 -60 0 -60 29 -60 44 0 61 10 61 35 0 23 -17 35 -51 35
-14 0 -19 7 -19 25 0 14 -4 25 -10 25 -6 0 -10 -27 -10 -60z m70 -25 c0 -9 -9
-15 -25 -15 -16 0 -25 6 -25 15 0 9 9 15 25 15 16 0 25 -6 25 -15z"/>
<path d="M3880 5630 c0 -33 4 -60 10 -60 6 0 10 27 10 60 0 33 -4 60 -10 60
-6 0 -10 -27 -10 -60z"/>
<path d="M3940 5630 c0 -33 4 -60 10 -60 6 0 10 19 10 43 l1 42 14 -32 c8 -18
16 -33 19 -33 3 0 14 17 25 38 l20 37 1 -47 c0 -27 5 -48 10 -48 6 0 10 27 10
60 0 72 -21 82 -47 23 l-16 -38 -16 37 c-24 58 -41 49 -41 -22z"/>
<path d="M4160 5630 c0 -33 4 -60 10 -60 6 0 10 11 10 24 0 37 17 40 36 6 10
-16 24 -30 32 -30 8 0 4 12 -12 37 l-26 37 22 23 c30 32 10 29 -24 -4 l-28
-27 0 27 c0 15 -4 27 -10 27 -6 0 -10 -27 -10 -60z"/>
<path d="M4296 5674 c-34 -33 -10 -104 34 -104 27 0 50 27 50 60 0 33 -23 60
-50 60 -10 0 -26 -7 -34 -16z m59 -44 c0 -31 -3 -35 -25 -35 -19 0 -26 6 -28
23 -5 36 5 54 30 50 19 -2 23 -9 23 -38z"/>
<path d="M4410 5630 c0 -71 20 -82 21 -12 l1 47 15 -37 c19 -46 29 -47 47 -5
l14 32 1 -42 c1 -67 21 -51 21 17 0 71 -19 81 -42 23 l-15 -38 -17 38 c-26 59
-46 49 -46 -23z"/>
<path d="M4570 5630 c0 -33 4 -60 10 -60 6 0 10 23 10 50 0 49 1 50 30 50 29
0 30 -1 30 -50 0 -27 5 -50 10 -50 6 0 10 27 10 60 l0 60 -50 0 -50 0 0 -60z"/>
<path d="M4716 5674 c-34 -33 -10 -104 34 -104 27 0 50 27 50 60 0 33 -23 60
-50 60 -10 0 -26 -7 -34 -16z m59 -44 c0 -31 -3 -35 -25 -35 -19 0 -26 6 -28
23 -5 36 5 54 30 50 19 -2 23 -9 23 -38z"/>
<path d="M4830 5630 c0 -33 4 -60 10 -60 6 0 10 11 10 25 0 21 5 25 30 25 25
0 30 -4 30 -25 0 -14 5 -25 10 -25 6 0 10 27 10 60 0 33 -4 60 -10 60 -5 0
-10 -11 -10 -25 0 -21 -5 -25 -30 -25 -25 0 -30 4 -30 25 0 14 -4 25 -10 25
-6 0 -10 -27 -10 -60z"/>
<path d="M4976 5668 c-9 -12 -16 -29 -16 -38 0 -30 30 -60 60 -60 43 0 46 18
3 22 -52 4 -56 28 -4 28 48 0 58 13 37 45 -21 32 -59 33 -80 3z m68 -13 c4
-12 -3 -15 -29 -15 -26 0 -33 3 -29 15 4 8 16 15 29 15 13 0 25 -7 29 -15z"/>
<path d="M5100 5630 c0 -33 4 -60 10 -60 6 0 10 11 10 25 0 21 5 25 30 25 25
0 30 -4 30 -25 0 -14 5 -25 10 -25 6 0 10 27 10 60 0 33 -4 60 -10 60 -5 0
-10 -11 -10 -25 0 -21 -5 -25 -30 -25 -25 0 -30 4 -30 25 0 14 -4 25 -10 25
-6 0 -10 -27 -10 -60z"/>
<path d="M5220 5680 c0 -5 9 -10 20 -10 17 0 20 -7 20 -50 0 -27 5 -50 10 -50
6 0 10 23 10 50 0 47 2 50 25 50 14 0 25 5 25 10 0 6 -25 10 -55 10 -30 0 -55
-4 -55 -10z"/>
<path d="M5365 5680 c-4 -6 7 -10 24 -10 40 0 39 -13 -1 -25 -25 -8 -34 -16
-36 -37 -3 -28 10 -36 66 -36 20 -1 22 4 22 47 0 26 -5 52 -12 59 -15 15 -54
16 -63 2z m53 -67 c-4 -22 -48 -31 -48 -10 0 19 10 27 32 27 13 0 18 -6 16
-17z"/>
<path d="M5480 5630 c0 -33 4 -60 10 -60 6 0 10 21 11 48 l0 47 16 -37 c8 -21
19 -38 23 -38 4 0 15 17 23 38 l16 37 0 -47 c1 -27 6 -48 11 -48 6 0 10 27 10
60 0 70 -21 83 -41 25 -7 -19 -16 -35 -19 -35 -3 0 -12 16 -19 35 -20 58 -41
45 -41 -25z"/>
<path d="M5190 5341 c0 -14 -5 -18 -19 -14 -13 3 -23 -2 -30 -16 -16 -30 2
-61 34 -59 23 2 25 6 25 55 0 29 -2 53 -5 53 -3 0 -5 -9 -5 -19z m-5 -51 c0
-27 -22 -39 -31 -16 -8 22 3 49 19 43 6 -2 12 -14 12 -27z"/>
<path d="M4837 5343 c-14 -14 -6 -32 20 -45 31 -15 29 -33 -4 -33 -13 1 -23
-3 -23 -8 0 -4 15 -7 33 -5 39 4 45 36 9 54 -30 15 -30 27 0 36 22 6 22 6 -3
7 -14 1 -29 -2 -32 -6z"/>
<path d="M4908 5338 c-2 -7 -2 -29 2 -48 3 -25 11 -36 25 -38 18 -2 18 -2 3 8
-10 6 -18 22 -18 35 0 17 6 25 18 26 13 0 14 2 2 6 -8 3 -18 10 -21 15 -3 5
-8 4 -11 -4z"/>
<path d="M4990 5318 l25 -11 -25 -6 c-16 -4 -25 -14 -25 -26 0 -16 7 -20 33
-22 26 -1 32 3 32 19 0 32 -19 58 -43 57 -21 0 -21 -1 3 -11z m20 -37 c0 -14
-18 -23 -30 -16 -6 4 -8 11 -5 16 8 12 35 12 35 0z"/>
<path d="M5051 5285 c1 -41 3 -40 13 8 9 41 36 35 36 -8 0 -19 5 -35 10 -35
13 0 13 21 0 54 -7 19 -16 25 -35 24 -22 -2 -25 -7 -24 -43z"/>
<path d="M5233 5290 c0 -25 2 -35 4 -22 2 12 2 32 0 45 -2 12 -4 2 -4 -23z"/>
<path d="M5271 5286 l2 -41 6 35 c4 22 12 35 21 35 9 0 18 -13 22 -35 l6 -35
-1 40 c-2 36 -5 40 -29 41 -26 1 -28 -1 -27 -40z"/>
<path d="M5355 5310 c-9 -30 3 -58 28 -63 22 -3 22 -4 -3 -15 -22 -9 -23 -11
-4 -11 31 -1 44 19 44 66 0 41 -1 43 -29 43 -21 0 -32 -6 -36 -20z m40 -20 c0
-13 -6 -25 -12 -27 -16 -6 -27 21 -19 43 9 23 31 11 31 -16z"/>
<path d="M4540 5306 c-27 -33 18 -72 48 -42 13 13 14 20 6 34 -15 23 -38 26
-54 8z"/>
<path d="M5033 5095 c0 -33 2 -45 4 -27 2 18 2 45 0 60 -2 15 -4 0 -4 -33z"/>
<path d="M5072 5095 c0 -35 2 -52 7 -42 6 17 8 17 20 3 7 -9 18 -16 24 -16 5
0 2 9 -8 20 -17 19 -17 21 0 40 10 11 13 20 8 20 -6 0 -17 -7 -24 -17 -13 -15
-15 -13 -20 18 -5 26 -7 21 -7 -26z"/>
<path d="M4821 5130 c-2 -25 19 -90 29 -90 5 0 12 16 16 35 7 40 19 38 27 -5
4 -16 11 -30 16 -30 10 0 35 90 27 98 -3 3 -9 -9 -12 -27 -9 -44 -21 -47 -28
-6 -8 42 -23 45 -32 8 -11 -47 -17 -48 -30 -7 -6 21 -12 32 -13 24z"/>
<path d="M4970 5109 l25 -12 -25 -6 c-36 -10 -34 -46 3 -47 26 -1 28 1 25 35
-3 30 -7 36 -28 38 l-25 3 25 -11z m20 -38 c0 -14 -18 -23 -30 -16 -6 4 -8 11
-5 16 8 12 35 12 35 0z"/>
<path d="M5153 5080 c0 -25 2 -35 4 -22 2 12 2 32 0 45 -2 12 -4 2 -4 -23z"/>
<path d="M5191 5076 l2 -41 6 35 c4 22 12 35 21 35 9 0 18 -13 22 -35 l6 -35
-1 40 c-2 36 -5 40 -29 41 -26 1 -28 -1 -27 -40z"/>
<path d="M5275 5100 c-9 -30 3 -58 28 -63 22 -3 22 -4 -3 -15 -22 -9 -23 -11
-4 -11 31 -1 44 19 44 66 0 41 -1 43 -29 43 -21 0 -32 -6 -36 -20z m40 -20 c0
-13 -6 -25 -12 -27 -16 -6 -27 21 -19 43 9 23 31 11 31 -16z"/>
<path d="M4534 5096 c-12 -31 0 -51 31 -51 27 0 30 3 30 30 0 25 -4 30 -28 33
-17 2 -29 -2 -33 -12z"/>
<path d="M4820 4881 c0 -28 5 -51 10 -51 6 0 10 11 10 25 0 32 13 32 40 -2 15
-20 20 -22 14 -8 -4 11 -7 34 -8 50 -1 26 -5 30 -33 33 l-33 3 0 -50z m50 24
c0 -8 -7 -15 -15 -15 -8 0 -15 7 -15 15 0 8 7 15 15 15 8 0 15 -7 15 -15z"/>
<path d="M4900 4883 c0 -39 11 -51 43 -51 25 0 27 4 27 39 0 47 -17 52 -22 7
-4 -46 -28 -49 -28 -4 0 20 -4 36 -10 36 -5 0 -10 -12 -10 -27z"/>
<path d="M4991 4865 c1 -41 3 -40 13 8 9 41 36 35 36 -8 0 -19 5 -35 10 -35
13 0 13 21 0 54 -7 19 -16 25 -35 24 -22 -2 -25 -7 -24 -43z"/>
<path d="M5081 4866 l2 -41 6 35 c4 22 12 35 21 35 9 0 18 -13 22 -35 l6 -35
-1 40 c-2 36 -5 40 -29 41 -26 1 -28 -1 -27 -40z"/>
<path d="M5173 4870 c0 -25 2 -35 4 -22 2 12 2 32 0 45 -2 12 -4 2 -4 -23z"/>
<path d="M5200 4869 c0 -21 5 -39 10 -39 6 0 10 13 10 29 0 28 15 49 27 38 3
-4 9 -21 14 -39 8 -33 8 -33 6 7 -2 38 -4 40 -34 42 -32 1 -33 0 -33 -38z"/>
<path d="M5294 4895 c-12 -30 0 -60 24 -59 12 0 22 -3 22 -8 0 -5 -10 -13 -22
-18 l-23 -9 22 0 c27 -1 43 26 43 72 0 31 -3 34 -31 35 -17 0 -32 -5 -35 -13z
m41 -25 c0 -13 -6 -25 -12 -27 -16 -6 -27 21 -19 43 9 23 31 11 31 -16z"/>
<path d="M4534 4886 c-12 -31 0 -51 31 -51 27 0 30 3 30 30 0 25 -4 30 -28 33
-17 2 -29 -2 -33 -12z"/>
<path d="M5083 4675 c0 -33 2 -45 4 -27 2 18 2 45 0 60 -2 15 -4 0 -4 -33z"/>
<path d="M4842 4708 c-7 -7 -12 -24 -12 -38 0 -14 5 -31 12 -38 13 -13 54 -16
62 -4 2 4 -7 8 -21 7 -32 0 -52 28 -37 53 6 9 22 17 35 17 32 0 68 -68 50 -96
-7 -13 -8 -19 -1 -19 13 0 52 89 47 104 -3 6 -8 -1 -12 -16 -9 -34 -21 -36
-31 -6 -13 43 -65 63 -92 36z"/>
<path d="M5013 4693 c-30 -12 -7 -74 27 -72 9 0 6 4 -7 9 -14 6 -23 18 -23 30
0 12 9 24 23 30 12 5 15 9 7 9 -8 -1 -21 -3 -27 -6z"/>
<path d="M5123 4660 c0 -25 2 -35 4 -22 2 12 2 32 0 45 -2 12 -4 2 -4 -23z"/>
<path d="M5161 4656 l2 -41 6 35 c4 22 12 35 21 35 9 0 18 -13 22 -35 l6 -35
-1 40 c-2 36 -5 40 -29 41 -26 1 -28 -1 -27 -40z"/>
<path d="M5245 4680 c-9 -30 3 -58 28 -63 22 -3 22 -4 -3 -15 -22 -9 -23 -11
-4 -11 31 -1 44 19 44 66 0 41 -1 43 -29 43 -21 0 -32 -6 -36 -20z m40 -20 c0
-27 -22 -39 -31 -16 -8 22 3 49 19 43 6 -2 12 -14 12 -27z"/>
<path d="M5295 4136 c-6 -159 -9 -186 -24 -189 -14 -4 -14 -5 1 -6 15 -1 17
-8 13 -43 -3 -24 -7 -114 -11 -200 -5 -134 -8 -158 -23 -161 -14 -4 -14 -5 2
-6 15 -1 17 -9 12 -68 -3 -38 -8 -125 -11 -195 -5 -106 -9 -128 -22 -131 -15
-4 -14 -5 1 -6 17 -1 18 -10 12 -113 -11 -217 -17 -278 -26 -272 -5 3 -9 1 -9
-5 0 -5 5 -11 11 -13 17 -6 -3 -367 -21 -378 -12 -8 -13 -10 -1 -10 12 0 13
-21 8 -120 l-6 -120 -42 -50 c-25 -29 -51 -50 -63 -51 -13 0 -16 -3 -7 -6 9
-4 -40 -58 -139 -158 -104 -105 -158 -151 -168 -147 -12 4 -14 1 -9 -12 6 -14
-27 -53 -144 -171 -95 -97 -156 -152 -165 -148 -9 3 -12 0 -9 -9 7 -19 -301
-339 -319 -332 -8 3 -13 -1 -13 -9 3 -22 -313 -349 -330 -343 -8 4 -13 0 -11
-8 2 -8 -39 -58 -91 -111 l-95 -98 -227 74 c-125 41 -224 78 -221 83 3 5 -2 7
-11 3 -18 -7 -377 109 -392 127 -5 6 -18 10 -28 8 -26 -5 -388 118 -381 130 4
6 -1 8 -13 4 -27 -8 -396 111 -387 126 4 6 0 8 -12 4 -26 -8 -380 107 -376
123 1 7 -6 9 -20 6 -28 -6 -382 108 -371 120 4 4 0 5 -9 2 -23 -8 -380 112
-372 125 4 6 -1 8 -15 3 -13 -4 -53 4 -102 20 -44 15 -82 25 -84 23 -3 -2 34
-17 81 -32 75 -24 84 -29 72 -43 -12 -15 -11 -15 10 -4 19 10 48 3 200 -45 97
-32 179 -59 181 -60 2 -2 -2 -12 -10 -21 -13 -17 -13 -17 7 -1 19 17 28 15
207 -45 149 -49 185 -65 175 -75 -6 -6 -8 -12 -2 -12 5 0 15 5 21 11 7 7 64
-7 197 -51 157 -52 185 -64 175 -76 -13 -16 2 -19 18 -3 8 8 62 -5 203 -50
162 -53 190 -64 180 -77 -14 -16 1 -19 17 -3 7 7 66 -7 202 -51 156 -50 191
-65 187 -77 -5 -13 -4 -14 8 -4 12 10 53 0 208 -50 106 -34 195 -64 197 -65 2
-2 -2 -10 -9 -19 -15 -19 -2 -20 19 -1 14 11 49 2 248 -64 l232 -77 103 104
c91 92 106 103 131 99 32 -7 36 1 5 13 -19 7 -5 24 145 178 146 149 170 170
194 167 16 -2 20 -1 11 2 -10 3 -18 9 -18 13 0 4 70 80 156 169 121 126 161
161 177 158 12 -2 16 -1 9 1 -7 3 -12 8 -10 13 2 5 70 78 151 164 137 143 150
154 172 146 16 -6 25 -6 25 0 0 6 -7 10 -15 10 -8 0 -15 3 -15 6 0 3 64 73
143 155 129 137 145 150 170 145 17 -4 26 -2 22 4 -3 6 -14 10 -23 10 -11 0 0
17 33 50 l49 50 4 121 c5 120 5 121 28 116 13 -2 21 0 18 4 -3 5 -12 9 -20 9
-16 0 -18 77 -7 268 6 112 6 114 30 109 30 -6 30 1 -2 13 -23 9 -24 13 -20 72
3 35 8 121 11 191 l6 129 27 -6 26 -5 -28 12 -28 11 6 111 c14 277 14 277 41
272 31 -6 31 1 -2 13 l-25 10 6 143 c9 223 13 245 38 250 21 4 21 4 -1 6 l-23
1 6 178 c4 97 8 183 10 190 3 6 1 12 -4 12 -5 0 -12 -83 -16 -184z"/>
<path d="M5472 3948 c-17 -17 -15 -63 4 -79 22 -18 48 0 52 35 6 45 -29 71
-56 44z m38 -18 c11 -21 -2 -60 -20 -60 -5 0 -12 9 -15 20 -7 23 2 60 15 60 5
0 14 -9 20 -20z"/>
<path d="M5586 3952 c-3 -6 2 -8 14 -5 34 9 36 -24 4 -58 l-28 -29 40 1 c31 2
34 3 10 6 l-28 5 22 23 c12 13 20 31 18 42 -3 19 -42 30 -52 15z"/>
<path d="M5540 3870 c0 -5 5 -10 10 -10 6 0 10 5 10 10 0 6 -4 10 -10 10 -5 0
-10 -4 -10 -10z"/>
<path d="M1431 3662 c-41 -20 -47 -34 -27 -55 13 -13 21 -13 48 -4 58 21 74
48 39 67 -24 12 -18 13 -60 -8z"/>
<path d="M1551 3639 c-13 -11 -22 -21 -20 -22 60 -34 64 -33 52 11 l-8 30 -24
-19z"/>
<path d="M1530 3590 c0 -12 28 -25 36 -17 3 3 -4 10 -15 17 -15 7 -21 7 -21 0z"/>
<path d="M1411 3534 c0 -11 3 -14 6 -6 3 7 2 16 -1 19 -3 4 -6 -2 -5 -13z"/>
<path d="M1581 3524 c-6 -15 -10 -28 -9 -29 24 -19 47 -23 66 -9 26 18 29 49
6 58 -31 12 -51 6 -63 -20z"/>
<path d="M5452 3538 c-17 -17 -15 -63 4 -79 22 -18 48 0 52 35 6 45 -29 71
-56 44z m38 -18 c11 -21 -2 -60 -20 -60 -5 0 -12 9 -15 20 -7 23 2 60 15 60 5
0 14 -9 20 -20z"/>
<path d="M5570 3539 c0 -5 5 -7 10 -4 6 4 10 -10 10 -34 0 -22 -5 -42 -12 -44
-7 -3 3 -5 22 -5 19 0 29 2 23 5 -8 3 -13 23 -13 49 0 37 -3 44 -20 44 -11 0
-20 -5 -20 -11z"/>
<path d="M1360 3510 c0 -5 -11 -10 -25 -10 -25 0 -35 -23 -15 -35 20 -12 48 5
48 30 0 14 -2 25 -4 25 -2 0 -4 -4 -4 -10z"/>
<path d="M2977 3506 c-14 -35 23 -67 50 -45 8 7 13 22 11 33 -4 26 -52 35 -61
12z"/>
<path d="M3090 3460 c-9 -16 -8 -25 1 -36 27 -33 75 -2 52 35 -15 24 -40 25
-53 1z"/>
<path d="M3496 3464 c-22 -21 -3 -56 27 -52 37 5 33 67 -5 68 -4 0 -14 -7 -22
-16z"/>
<path d="M1670 3449 c-15 -28 -6 -49 22 -49 14 0 18 3 11 8 -8 5 -8 12 3 26
14 20 14 20 15 0 0 -11 3 -14 6 -6 6 16 -14 42 -33 42 -7 0 -18 -9 -24 -21z"/>
<path d="M5520 3460 c0 -5 5 -10 10 -10 6 0 10 5 10 10 0 6 -4 10 -10 10 -5 0
-10 -4 -10 -10z"/>
<path d="M1320 3440 c0 -6 7 -10 15 -10 8 0 15 2 15 4 0 2 -7 6 -15 10 -8 3
-15 1 -15 -4z"/>
<path d="M1489 3424 c-16 -20 -1 -48 29 -52 25 -4 39 32 22 53 -16 19 -34 19
-51 -1z"/>
<path d="M3621 3422 c-12 -23 4 -52 29 -52 29 0 44 35 24 54 -20 21 -41 20
-53 -2z"/>
<path d="M1960 3399 c0 -5 5 -7 10 -4 6 3 10 8 10 11 0 2 -4 4 -10 4 -5 0 -10
-5 -10 -11z"/>
<path d="M3537 3403 c-13 -12 -7 -51 9 -57 21 -8 20 -8 38 10 12 12 13 20 6
35 -10 19 -40 26 -53 12z"/>
<path d="M1867 3393 c-11 -10 -8 -38 5 -51 15 -15 48 3 48 27 0 24 -37 41 -53
24z m43 -29 c0 -8 -4 -14 -10 -14 -5 0 -10 9 -10 21 0 11 5 17 10 14 6 -3 10
-13 10 -21z m-33 -6 c-3 -8 -6 -5 -6 6 -1 11 2 17 5 13 3 -3 4 -12 1 -19z"/>
<path d="M2000 3375 c-7 -9 -18 -14 -24 -12 -6 3 -11 -6 -11 -18 0 -13 3 -21
8 -18 4 2 7 0 7 -6 0 -5 -5 -11 -11 -13 -7 -2 -7 -12 0 -31 8 -21 8 -26 -1
-21 -6 4 -8 3 -4 -4 3 -5 0 -12 -6 -15 -10 -4 -10 -7 0 -18 11 -12 13 -12 10
0 -2 7 2 15 9 18 7 3 9 -3 6 -16 -3 -12 -1 -21 6 -21 9 0 9 -5 1 -20 -7 -14
-7 -20 0 -20 5 0 10 -5 10 -11 0 -5 -4 -7 -10 -4 -6 3 -7 -1 -4 -9 3 -9 12
-16 20 -16 16 0 19 -26 5 -35 -6 -3 -14 3 -20 12 -6 10 -11 13 -11 7 0 -6 3
-14 7 -18 4 -3 8 -16 10 -28 2 -11 13 -29 24 -39 11 -10 18 -23 14 -28 -3 -6
-1 -11 6 -11 6 0 9 -8 6 -20 -9 -33 17 -43 42 -16 21 23 21 24 4 41 -13 13
-14 20 -5 23 6 2 12 10 12 18 0 18 5 18 35 -2 20 -13 28 -14 40 -4 8 7 15 18
15 25 0 18 -73 114 -83 108 -12 -7 -57 49 -49 61 10 17 2 59 -15 78 -8 9 -12
21 -9 26 3 6 -1 12 -9 16 -8 3 -15 10 -15 17 0 6 7 8 16 5 15 -6 15 -4 3 11
-7 10 -14 19 -15 21 -1 1 -7 -5 -14 -13z"/>
<path d="M3202 3378 c-7 -7 -12 -20 -12 -30 0 -10 -7 -18 -15 -18 -9 0 -20
-10 -25 -22 -6 -16 -9 -18 -9 -7 -1 14 -20 29 -36 29 -7 0 -35 -32 -35 -40 0
-5 10 -19 22 -30 19 -17 20 -24 10 -40 -7 -13 -10 -42 -6 -87 3 -43 1 -75 -7
-90 -14 -26 3 -55 30 -51 27 3 61 -13 63 -30 5 -55 -8 -72 -55 -72 -20 0 -32
-9 -47 -32 -11 -18 -17 -41 -14 -50 4 -14 0 -17 -18 -16 -15 2 -26 -4 -33 -19
-10 -23 -39 -31 -49 -14 -11 18 21 62 57 78 29 13 40 26 49 55 9 29 9 41 0 50
-7 7 -12 21 -12 33 0 23 -44 75 -63 75 -7 0 -22 -7 -34 -15 -14 -10 -24 -12
-28 -5 -3 5 -17 10 -31 10 -19 0 -26 -6 -30 -30 -7 -32 -28 -40 -38 -15 -3 8
-15 15 -26 15 -17 0 -20 4 -15 20 13 42 -32 65 -67 33 -11 -9 -18 -11 -18 -5
0 16 -43 15 -58 0 -7 -7 -12 -19 -12 -27 0 -8 -7 -22 -16 -32 -23 -25 -10 -59
23 -59 15 0 36 -11 49 -25 13 -14 32 -25 44 -25 32 0 35 -26 6 -52 -23 -21
-24 -27 -17 -66 5 -23 5 -45 0 -48 -17 -10 -9 -43 12 -54 15 -9 19 -18 15 -35
-4 -15 0 -30 10 -40 27 -26 34 -20 68 58 12 28 22 37 39 37 13 0 27 3 31 7 12
13 51 10 62 -5 15 -21 48 -11 52 16 2 12 10 22 18 22 15 0 19 -16 5 -24 -4 -3
-11 -20 -15 -37 -8 -40 -91 -122 -126 -124 -14 -1 -39 5 -57 12 -43 18 -63 8
-63 -31 0 -37 17 -63 44 -68 32 -5 19 -23 -18 -26 -25 -2 -41 3 -55 17 -12 12
-28 21 -36 21 -22 0 -18 17 5 23 25 6 26 34 3 59 -14 16 -15 22 -5 36 26 36
25 45 -6 73 -18 16 -38 26 -46 23 -7 -3 -16 2 -19 10 -4 11 -1 16 12 16 29 0
45 25 31 50 -9 17 -19 20 -48 18 -34 -3 -37 -6 -37 -33 0 -16 -5 -35 -11 -42
-17 -18 -52 -4 -58 23 -8 29 -41 33 -54 7 -11 -21 -5 -43 10 -43 7 0 7 4 0 13
-14 17 2 42 22 34 17 -7 22 -37 6 -37 -5 0 -7 -7 -3 -16 4 -12 2 -15 -8 -12
-41 15 -67 -42 -29 -62 17 -9 18 -14 9 -31 -22 -42 49 -69 86 -32 14 14 18 14
26 2 5 -8 7 -20 4 -27 -3 -8 -5 -19 -5 -26 0 -8 -10 -11 -30 -8 -41 6 -80 -5
-80 -23 0 -9 -9 -15 -22 -15 -31 0 -44 -11 -45 -38 -1 -17 7 -27 32 -39 29
-14 32 -18 22 -34 -9 -15 -9 -24 1 -40 12 -18 11 -21 -7 -26 -11 -3 -23 -14
-26 -25 -10 -29 14 -50 49 -45 17 2 39 -1 48 -7 13 -8 23 -8 38 1 16 11 21 10
30 -7 10 -19 9 -20 -30 -14 -44 7 -80 -13 -80 -45 0 -12 -3 -12 -12 -3 -16 16
-43 15 -56 -1 -15 -17 8 -83 39 -117 13 -14 24 -36 24 -50 0 -17 8 -29 26 -37
25 -12 26 -16 19 -49 -5 -20 -6 -42 -3 -49 6 -17 32 -27 45 -19 14 9 108 -38
108 -53 0 -13 38 -28 47 -19 4 3 14 -1 24 -10 18 -16 59 -12 59 7 0 5 11 9 24
9 33 0 46 38 20 57 -15 11 -21 10 -40 -2 -13 -8 -26 -15 -28 -15 -7 0 6 34 15
40 4 3 14 24 22 47 15 45 7 73 -21 73 -11 0 -18 8 -19 20 -2 26 9 26 25 -1 8
-13 21 -19 35 -17 17 2 22 10 22 33 0 26 -3 30 -28 30 -28 -1 -29 1 -23 35 6
39 -4 59 -39 79 -18 11 -18 12 7 7 30 -7 68 24 68 56 0 10 9 27 20 38 16 16
18 25 10 40 -6 11 -17 20 -25 20 -21 0 -14 38 8 44 15 4 18 11 15 35 -3 19 0
32 9 35 18 7 17 55 -2 62 -19 8 -9 24 14 24 10 0 24 -11 31 -25 12 -23 11 -27
-8 -46 -33 -30 -25 -54 18 -60 19 -3 26 -11 28 -31 2 -16 -1 -28 -7 -28 -6 0
-11 6 -11 14 0 13 -20 26 -40 26 -5 0 -14 -9 -20 -19 -12 -24 13 -55 39 -46
13 4 19 -5 29 -43 8 -26 18 -55 23 -64 13 -25 12 -26 -22 -44 -26 -13 -36 -14
-55 -3 -34 18 -55 -3 -50 -49 7 -51 18 -57 66 -38 22 9 51 16 64 16 14 0 30
10 40 25 20 30 20 49 1 65 -12 10 -12 14 0 26 9 9 12 26 8 49 -4 26 -1 41 13
56 15 17 16 24 6 39 -7 11 -12 26 -12 33 0 8 -11 26 -25 41 -22 24 -24 30 -12
47 14 19 14 19 37 -1 13 -11 31 -20 40 -20 10 0 23 -7 30 -15 20 -25 53 -14
69 22 8 19 23 33 35 35 11 2 22 11 24 20 4 23 -44 86 -70 90 -20 3 -20 3 2 31
19 25 21 32 11 54 -11 23 -10 25 3 14 15 -13 56 -6 56 9 0 5 10 10 22 12 17 2
24 13 30 43 11 50 5 65 -26 65 -24 0 -36 -16 -36 -51 0 -27 -28 -24 -29 4 0
12 -3 42 -7 67 -5 39 -2 49 20 73 20 21 24 32 17 45 -6 11 -6 24 0 35 12 21 4
36 -25 47 -19 7 -20 9 -3 15 10 4 29 2 42 -5 13 -7 29 -10 37 -7 7 3 3 6 -9 6
-19 1 -23 7 -23 36 0 19 -4 35 -10 35 -5 0 -18 10 -30 22 -20 22 -20 22 0 43
11 12 20 27 20 33 0 15 16 16 25 2 3 -5 17 -10 31 -10 22 0 25 4 22 28 -3 23
-8 27 -35 27 -39 0 -49 10 -56 56 -4 28 -1 38 14 47 24 16 24 38 0 52 -24 13
-24 13 -39 -2z m43 -317 c3 -5 1 -12 -5 -16 -5 -3 -10 1 -10 9 0 18 6 21 15 7z
m-120 -41 c3 -5 -1 -10 -9 -10 -9 0 -16 5 -16 10 0 6 4 10 9 10 6 0 13 -4 16
-10z m-399 -38 c-9 -9 -37 8 -31 18 5 8 11 7 21 -1 8 -6 12 -14 10 -17z m451
22 c-3 -3 -12 -4 -19 -1 -8 3 -5 6 6 6 11 1 17 -2 13 -5z m-174 -45 c23 -24
22 -29 -7 -29 -20 0 -56 35 -56 55 0 11 45 -7 63 -26z m223 20 c10 -17 -13
-36 -27 -22 -12 12 -4 33 11 33 5 0 12 -5 16 -11z m-452 -14 c3 -9 0 -15 -8
-15 -8 0 -16 7 -20 15 -3 9 0 15 8 15 8 0 16 -7 20 -15z m139 -61 c13 -5 12
-12 -4 -56 -10 -28 -17 -54 -15 -57 2 -3 -10 -6 -27 -6 -26 0 -33 -5 -35 -22
-2 -13 -7 -23 -12 -23 -5 0 -17 -3 -27 -7 -15 -5 -16 -4 -7 8 6 8 14 28 18 44
4 17 15 38 24 48 13 15 14 22 4 37 -10 16 -9 21 6 29 19 12 53 14 75 5z m312
-4 c3 -5 -1 -10 -9 -10 -8 0 -18 5 -21 10 -3 6 1 10 9 10 8 0 18 -4 21 -10z
m-175 -30 c0 -5 -4 -10 -10 -10 -5 0 -10 5 -10 10 0 6 5 10 10 10 6 0 10 -4
10 -10z m0 -110 c0 -11 -4 -20 -9 -20 -14 0 -23 18 -16 30 10 17 25 11 25 -10z
m236 -18 c-22 -5 -30 3 -21 18 5 8 11 7 22 -2 15 -12 14 -13 -1 -16z m1 -46
c-5 -16 -27 -19 -27 -3 0 7 7 14 15 14 9 0 14 -5 12 -11z m-57 -22 c0 -8 -7
-14 -15 -14 -15 0 -21 21 -9 33 10 9 24 -2 24 -19z m-545 -4 c3 -5 -1 -10 -10
-10 -9 0 -13 5 -10 10 3 6 8 10 10 10 2 0 7 -4 10 -10z m-73 -26 c7 -7 -14
-64 -24 -64 -11 0 -21 47 -13 59 7 12 28 15 37 5z m372 -90 c5 -12 2 -15 -10
-10 -8 3 -18 6 -20 6 -3 0 -2 5 1 10 9 15 22 12 29 -6z m96 -28 c5 -13 15 -26
22 -29 10 -4 10 -7 1 -18 -10 -10 -17 -9 -37 10 -17 16 -33 22 -51 19 -46 -9
-37 23 10 35 38 9 46 7 55 -17z m-100 -46 c0 -5 -5 -10 -11 -10 -5 0 -7 5 -4
10 3 6 8 10 11 10 2 0 4 -4 4 -10z m40 -104 c0 -2 -7 -6 -15 -10 -8 -3 -15 -1
-15 4 0 6 7 10 15 10 8 0 15 -2 15 -4z m-236 -56 c-2 -29 1 -43 14 -52 27 -19
34 -45 15 -53 -19 -7 -33 11 -33 43 0 15 -7 26 -20 29 -15 4 -17 9 -10 23 6
10 10 28 10 39 0 13 5 19 14 15 9 -3 12 -18 10 -44z m164 -23 c2 -12 -3 -17
-17 -17 -12 0 -21 6 -21 13 0 31 32 34 38 4z m109 -22 c-4 -8 -11 -15 -17 -15
-6 0 -6 7 2 20 14 22 24 19 15 -5z m-292 -6 c11 -17 -1 -21 -15 -4 -8 9 -8 15
-2 15 6 0 14 -5 17 -11z m225 -3 c0 -3 -4 -8 -10 -11 -5 -3 -10 -1 -10 4 0 6
5 11 10 11 6 0 10 -2 10 -4z m40 -36 c0 -5 -5 -10 -11 -10 -5 0 -7 5 -4 10 3
6 8 10 11 10 2 0 4 -4 4 -10z m0 -56 c0 -9 -7 -14 -17 -12 -25 5 -28 28 -4 28
12 0 21 -6 21 -16z m-310 -75 c0 -17 8 -34 21 -42 12 -9 16 -17 10 -21 -6 -4
-18 2 -28 14 -10 11 -28 20 -40 20 -18 0 -23 6 -23 24 0 14 7 32 16 41 21 21
44 3 44 -36z m187 -5 c-3 -3 -12 -4 -19 -1 -8 3 -5 6 6 6 11 1 17 -2 13 -5z
m-3 -65 c-6 -11 -24 -2 -24 11 0 5 7 7 15 4 8 -4 12 -10 9 -15z m-369 -29 c3
-5 -1 -10 -10 -10 -9 0 -13 5 -10 10 3 6 8 10 10 10 2 0 7 -4 10 -10z m165
-20 c26 -26 25 -31 -5 -17 -14 7 -25 18 -25 25 0 17 7 15 30 -8z m-120 -11 c0
-14 -17 -10 -23 5 -4 10 -1 13 9 9 7 -3 14 -9 14 -14z m155 -38 c3 -5 1 -12
-5 -16 -5 -3 -10 1 -10 9 0 18 6 21 15 7z"/>
<path d="M1712 3339 c-7 -11 -17 -17 -23 -13 -8 4 -9 -4 -4 -25 5 -24 3 -31
-9 -31 -9 0 -16 -5 -16 -10 0 -6 11 -8 25 -4 17 4 25 2 25 -7 0 -8 5 -6 13 5
13 18 14 18 21 0 7 -18 8 -17 21 5 11 21 10 27 -1 39 -20 19 -18 43 3 35 11
-4 14 -3 9 6 -5 7 -14 10 -21 7 -7 -2 -17 0 -22 5 -5 5 -14 0 -21 -12z"/>
<path d="M3637 3317 c-20 -37 -14 -83 7 -55 6 9 20 17 30 19 44 9 47 69 4 69
-16 0 -29 -10 -41 -33z"/>
<path d="M3393 3304 c-3 -9 -1 -25 5 -34 9 -14 8 -19 -4 -24 -10 -4 -14 -16
-12 -33 4 -36 41 -44 60 -14 7 12 18 21 25 21 20 0 15 38 -9 70 -24 33 -55 39
-65 14z"/>
<path d="M2676 3297 c-12 -9 -19 -31 -21 -71 -3 -49 -1 -56 11 -45 7 6 23 9
33 6 14 -3 19 0 19 12 -1 9 2 32 7 53 6 30 4 38 -13 47 -14 7 -24 7 -36 -2z"/>
<path d="M3322 3281 c-18 -11 -12 -41 10 -55 14 -8 22 -7 35 7 29 29 -10 71
-45 48z"/>
<path d="M3842 3258 c-30 -30 3 -77 40 -57 24 13 23 46 -1 59 -24 13 -24 13
-39 -2z"/>
<path d="M3562 3238 c-26 -26 -8 -58 33 -58 19 0 29 38 15 55 -15 18 -32 19
-48 3z"/>
<path d="M1243 3224 c-15 -39 38 -67 60 -32 8 12 7 21 -2 32 -17 21 -50 20
-58 0z"/>
<path d="M1790 3229 c0 -5 5 -7 10 -4 6 3 10 8 10 11 0 2 -4 4 -10 4 -5 0 -10
-5 -10 -11z"/>
<path d="M2749 3214 c-10 -12 -10 -20 -1 -35 7 -10 12 -26 12 -35 0 -20 53
-74 73 -74 25 0 40 26 27 49 -6 12 -15 21 -21 21 -5 0 -3 10 5 23 18 27 10 42
-27 56 -38 15 -52 14 -68 -5z"/>
<path d="M1750 3195 c-17 -20 -8 -49 15 -53 12 -2 35 10 53 26 27 24 30 31 17
36 -29 11 -72 6 -85 -9z"/>
<path d="M2270 3196 c-6 -8 -18 -12 -25 -10 -21 8 -39 -34 -23 -53 7 -8 11
-28 10 -44 -4 -35 3 -36 30 -6 l20 22 -5 -23 c-3 -12 -1 -20 4 -16 15 9 10 41
-8 48 -19 8 -9 21 28 40 12 6 24 18 26 26 3 10 1 9 -7 -2 -6 -10 -17 -18 -24
-18 -19 0 -27 25 -13 39 6 6 8 11 5 11 -3 0 -11 -6 -18 -14z m-5 -46 c0 -7 -6
-15 -12 -17 -8 -3 -13 4 -13 17 0 13 5 20 13 18 6 -3 12 -11 12 -18z m0 -50
c-3 -5 -11 -10 -16 -10 -6 0 -7 5 -4 10 3 6 11 10 16 10 6 0 7 -4 4 -10z"/>
<path d="M3640 3169 c-9 -15 -8 -24 2 -36 7 -9 13 -21 14 -27 0 -6 2 -17 2
-24 1 -7 12 -17 25 -22 12 -6 29 -15 38 -22 23 -16 49 -3 49 26 0 19 -7 27
-25 32 -29 7 -30 11 -9 35 12 14 13 22 4 38 -15 30 -85 30 -100 0z"/>
<path d="M5432 3138 c-17 -17 -15 -63 4 -79 22 -18 48 0 52 35 6 45 -29 71
-56 44z m38 -18 c11 -21 -2 -60 -20 -60 -5 0 -12 9 -15 20 -7 23 2 60 15 60 5
0 14 -9 20 -20z"/>
<path d="M5552 3138 c-17 -17 -15 -63 4 -79 22 -18 48 0 52 35 6 45 -29 71
-56 44z m43 -18 c7 -23 -2 -60 -15 -60 -5 0 -14 9 -20 20 -11 21 2 60 20 60 5
0 12 -9 15 -20z"/>
<path d="M3393 3133 c-43 -6 -60 -35 -35 -60 22 -23 40 -61 44 -93 4 -32 42
-40 57 -11 8 15 8 23 -3 34 -11 11 -12 24 -3 66 8 43 7 55 -4 62 -8 5 -16 8
-19 7 -3 -1 -20 -3 -37 -5z m-3 -33 c0 -11 -7 -20 -15 -20 -15 0 -21 21 -8 33
12 13 23 7 23 -13z"/>
<path d="M2567 3113 c-13 -13 -7 -42 12 -52 25 -14 54 16 40 42 -10 17 -40 23
-52 10z m38 -33 c3 -5 -3 -10 -14 -10 -12 0 -21 5 -21 10 0 6 6 10 14 10 8 0
18 -4 21 -10z"/>
<path d="M1225 3073 c-4 -16 -2 -29 4 -31 6 -2 6 -13 -1 -33 -17 -49 24 -81
50 -39 8 14 9 26 3 37 -6 11 -5 24 3 36 8 15 8 21 -2 24 -10 4 -10 8 -1 19 9
11 6 14 -19 14 -24 0 -31 -5 -37 -27z"/>
<path d="M1755 3081 c3 -6 11 -8 17 -5 6 4 15 0 20 -7 8 -12 9 -11 5 1 -2 8
-14 17 -26 18 -15 2 -21 0 -16 -7z"/>
<path d="M5500 3060 c0 -5 5 -10 10 -10 6 0 10 5 10 10 0 6 -4 10 -10 10 -5 0
-10 -4 -10 -10z"/>
<path d="M2293 3043 c-7 -2 -13 -13 -13 -24 0 -11 -5 -28 -12 -38 -16 -26 -3
-53 24 -49 20 3 23 9 23 45 1 33 -2 40 -12 31 -10 -8 -13 -6 -13 6 0 22 40 21
41 -1 0 -12 2 -13 6 -5 3 7 -1 19 -7 27 -13 16 -17 17 -37 8z m15 -86 c2 -12
-3 -17 -17 -17 -15 0 -21 6 -21 21 0 25 33 22 38 -4z"/>
<path d="M3783 2994 c-8 -22 10 -49 32 -49 10 0 22 7 28 16 15 24 1 49 -28 49
-15 0 -28 -7 -32 -16z"/>
<path d="M1795 2978 c-3 -11 -1 -54 4 -90 1 -5 6 -8 12 -8 8 0 8 4 0 14 -10
12 -7 18 16 30 15 8 22 16 16 17 -7 1 -19 2 -25 3 -20 2 -21 34 -1 39 17 4 17
5 0 6 -10 0 -20 -5 -22 -11z"/>
<path d="M1960 2946 c-6 -8 -21 -16 -32 -18 -12 -2 -23 -10 -26 -18 -3 -12 -2
-12 8 -3 7 6 19 9 26 6 19 -7 18 -33 -1 -33 -8 0 -15 -5 -15 -11 0 -6 7 -8 16
-5 9 3 18 6 20 6 2 0 4 7 4 15 0 9 9 15 24 15 28 0 42 26 25 46 -15 18 -33 18
-49 0z m48 -13 c5 -17 -26 -29 -40 -15 -6 6 -7 15 -3 22 9 14 37 9 43 -7z"/>
<path d="M3694 2945 c-4 -9 -2 -30 3 -48 11 -40 57 -52 68 -18 15 47 -54 111
-71 66z"/>
<path d="M1730 2905 c-19 -23 -8 -50 20 -50 16 0 26 6 28 18 4 18 -14 47 -28
47 -4 0 -13 -7 -20 -15z m38 -22 c-2 -10 -10 -18 -18 -18 -8 0 -16 8 -18 18
-2 12 3 17 18 17 15 0 20 -5 18 -17z"/>
<path d="M2637 2899 c-39 -22 -4 -79 35 -58 10 5 18 18 18 29 0 25 -30 41 -53
29z"/>
<path d="M2009 2883 c-13 -16 -12 -17 4 -4 16 13 21 21 13 21 -2 0 -10 -8 -17
-17z"/>
<path d="M2032 2849 c-28 -11 -20 -29 8 -22 15 4 20 0 20 -16 0 -12 5 -19 10
-16 31 19 -4 67 -38 54z"/>
<path d="M2451 2847 c-16 -16 -14 -44 5 -51 23 -9 24 -8 17 11 -5 13 -2 12 14
-4 29 -29 93 -40 109 -18 17 23 7 44 -25 57 -38 16 -106 19 -120 5z m19 -12
c-7 -9 -15 -13 -17 -11 -7 7 7 26 19 26 6 0 6 -6 -2 -15z"/>
<path d="M1220 2818 c0 -10 6 -18 13 -19 6 0 20 -2 30 -4 11 -2 17 3 17 15 0
12 -9 19 -30 22 -24 4 -30 1 -30 -14z"/>
<path d="M1835 2828 c-16 -6 -36 -12 -43 -14 -20 -6 -10 -48 12 -52 11 -3 25
3 32 13 8 10 14 12 19 6 8 -14 42 -14 50 0 4 5 4 21 1 35 -7 26 -22 28 -71 12z
m-7 -35 c-2 -10 -10 -18 -18 -18 -8 0 -16 8 -18 18 -2 12 3 17 18 17 15 0 20
-5 18 -17z m57 -3 c-3 -5 -12 -10 -18 -10 -7 0 -6 4 3 10 19 12 23 12 15 0z"/>
<path d="M1246 2765 c-9 -9 -16 -24 -15 -33 0 -12 3 -11 9 6 11 25 20 27 40
10 12 -11 12 -10 0 7 -8 11 -15 21 -16 23 -1 2 -9 -4 -18 -13z"/>
<path d="M5454 2737 c-3 -8 -4 -30 -2 -49 2 -28 7 -33 28 -33 23 0 25 4 25 45
0 39 -3 45 -23 48 -13 2 -24 -3 -28 -11z m41 -38 c0 -24 -5 -34 -15 -34 -16 0
-25 37 -16 62 10 26 31 8 31 -28z"/>
<path d="M5598 2743 c6 -2 12 -22 12 -43 0 -21 -6 -41 -12 -43 -7 -3 3 -5 22
-5 19 0 27 2 18 5 -14 3 -18 15 -18 49 0 36 -3 44 -17 43 -11 0 -13 -3 -5 -6z"/>
<path d="M3377 2733 c-4 -3 -7 -14 -7 -24 0 -10 -9 -23 -20 -29 -25 -13 -26
-46 -3 -59 25 -13 53 5 53 34 0 15 6 25 14 25 17 0 28 24 20 45 -6 15 -45 21
-57 8z"/>
<path d="M1257 2712 c-57 -34 -87 -139 -52 -182 7 -8 16 -25 19 -37 9 -27 74
-124 94 -139 12 -8 14 -23 9 -62 -5 -44 -3 -53 12 -61 31 -17 57 11 64 69 8
67 -19 142 -74 204 -35 40 -40 52 -43 101 -2 46 0 55 14 55 25 0 43 26 35 50
-8 24 -39 25 -78 2z m13 -28 c0 -2 -9 -4 -21 -4 -11 0 -18 4 -14 10 5 8 35 3
35 -6z"/>
<path d="M3740 2690 c0 -6 -12 -15 -26 -20 -19 -7 -25 -16 -22 -33 3 -26 46
-37 59 -15 7 10 12 11 26 0 32 -22 43 -24 58 -12 25 21 17 47 -21 69 -37 22
-74 28 -74 11z"/>
<path d="M5363 2693 c15 -2 37 -2 50 0 12 2 0 4 -28 4 -27 0 -38 -2 -22 -4z"/>
<path d="M3542 2678 c-23 -23 -7 -68 24 -68 14 0 44 27 44 40 0 13 -30 40 -44
40 -6 0 -17 -5 -24 -12z"/>
<path d="M2348 2652 c-7 -10 -21 -21 -30 -25 -25 -9 -22 -40 6 -67 45 -42 72
-6 41 54 -17 33 -11 50 16 43 11 -3 17 -1 13 4 -9 15 -32 10 -46 -9z m-19 -49
c-7 -10 -15 -20 -16 -22 -2 -2 -3 5 -3 17 0 14 6 22 16 22 14 0 15 -3 3 -17z
m41 -38 c0 -8 -7 -15 -16 -15 -14 0 -14 3 -4 15 7 8 14 15 16 15 2 0 4 -7 4
-15z"/>
<path d="M2864 2656 c-11 -28 1 -51 25 -51 32 0 49 28 32 49 -17 20 -50 21
-57 2z"/>
<path d="M3417 2646 c-14 -35 23 -67 50 -45 8 7 13 22 11 33 -4 26 -52 35 -61
12z"/>
<path d="M1745 2616 c-33 -24 1 -104 38 -90 21 8 25 24 15 60 -9 37 -29 48
-53 30z m25 -16 c-20 -13 -33 -13 -25 0 3 6 14 10 23 10 15 0 15 -2 2 -10z
m20 -50 c0 -5 -8 -10 -17 -10 -15 0 -16 2 -3 10 19 12 20 12 20 0z"/>
<path d="M2085 2595 c0 -13 3 -21 8 -18 4 2 7 10 7 18 0 8 -3 16 -7 18 -5 3
-8 -5 -8 -18z"/>
<path d="M3276 2589 c-30 -36 -31 -42 -10 -63 24 -25 38 -19 67 26 21 33 21
33 1 52 -22 22 -29 20 -58 -15z"/>
<path d="M3492 2578 c-7 -7 -12 -21 -12 -32 0 -18 1 -18 19 -2 10 9 25 14 35
10 9 -3 16 -2 16 3 0 12 -22 33 -35 33 -6 0 -16 -5 -23 -12z"/>
<path d="M3892 2573 c-29 -6 -43 -41 -41 -104 2 -49 -12 -79 -37 -79 -17 0
-18 -12 -3 -27 9 -9 16 -9 30 0 26 16 51 -10 55 -61 4 -48 -18 -76 -39 -48 -7
9 -23 18 -36 21 -31 6 -40 15 -14 15 25 0 33 8 26 26 -4 10 -12 8 -37 -11 -18
-14 -38 -25 -44 -25 -13 0 -27 100 -18 135 6 22 3 25 -19 25 -14 0 -28 -7 -31
-15 -10 -26 -22 -16 -20 18 1 28 -3 32 -25 35 -30 3 -45 -20 -30 -46 5 -10 5
-22 -2 -33 -13 -21 6 -49 34 -49 23 0 26 -32 4 -50 -25 -20 -18 -54 16 -79 22
-17 28 -26 20 -34 -16 -16 -13 -54 5 -61 8 -3 25 -1 36 5 30 16 32 5 3 -22
-27 -27 -32 -60 -11 -78 8 -7 17 -42 21 -84 8 -77 17 -97 46 -97 21 0 41 32
34 53 -3 7 -1 26 5 41 8 22 15 27 32 23 28 -8 58 9 58 33 0 19 -32 44 -43 34
-3 -3 -15 -3 -26 1 -22 7 -29 39 -11 50 15 9 12 45 -4 51 -8 3 -14 18 -14 33
1 21 8 30 29 38 16 7 29 7 29 2 0 -5 7 -9 16 -9 8 0 13 -4 10 -9 -3 -4 1 -16
8 -26 21 -29 63 -13 69 27 3 18 8 43 12 54 5 16 0 28 -16 42 l-22 21 22 52
c20 46 21 56 11 100 -7 28 -10 59 -7 70 12 45 -10 56 -81 42z"/>
<path d="M3726 2545 c-21 -31 -21 -31 12 -30 23 0 27 -4 27 -30 0 -30 26 -52
46 -39 15 9 10 44 -7 51 -8 3 -13 12 -9 21 18 49 -40 72 -69 27z"/>
<path d="M1823 2523 c-4 -9 -15 -25 -25 -35 -19 -19 -15 -43 9 -52 17 -7 43
10 43 28 0 8 11 11 30 8 33 -5 55 12 56 43 0 17 -7 20 -54 22 -41 1 -54 -2
-59 -14z m31 -8 c-6 -16 -24 -21 -24 -7 0 11 11 22 21 22 5 0 6 -7 3 -15z
m-25 -62 c-15 -18 -34 -1 -25 22 5 14 9 15 21 5 12 -10 13 -16 4 -27z"/>
<path d="M1963 2532 c-8 -5 -7 -11 3 -19 15 -14 27 -3 16 14 -4 7 -13 9 -19 5z"/>
<path d="M2263 2484 c-9 -24 18 -68 44 -72 27 -4 37 23 20 56 -15 32 -54 42
-64 16z m37 2 c0 -2 -7 -7 -16 -10 -8 -3 -12 -2 -9 4 6 10 25 14 25 6z"/>
<path d="M3287 2433 c-14 -13 -7 -43 12 -53 15 -7 23 -6 35 5 9 9 17 11 21 5
10 -15 52 -12 59 5 14 36 -33 62 -61 34 -8 -8 -13 -8 -17 0 -8 12 -39 15 -49
4z"/>
<path d="M1976 2415 c-20 -21 -5 -55 25 -55 24 0 36 27 22 48 -14 23 -29 25
-47 7z"/>
<path d="M1750 2396 c-27 -33 18 -72 48 -42 13 13 14 20 6 34 -15 23 -38 26
-54 8z m40 -22 c0 -8 -7 -14 -15 -14 -15 0 -21 21 -9 33 10 9 24 -2 24 -19z"/>
<path d="M2230 2385 c-10 -12 -10 -18 0 -30 14 -16 36 -20 44 -7 3 5 -5 8 -17
8 -13 -1 -22 5 -22 14 0 9 9 15 22 14 12 0 20 3 17 8 -8 13 -30 9 -44 -7z"/>
<path d="M1832 2378 c-18 -18 -15 -36 9 -49 29 -15 59 12 43 39 -14 22 -36 26
-52 10z m42 -29 c-8 -14 -34 -11 -34 4 0 8 3 17 7 20 9 9 34 -13 27 -24z"/>
<path d="M3416 2374 c-19 -19 -20 -26 -4 -42 18 -18 46 -14 58 7 7 15 6 23 -6
35 -19 20 -29 20 -48 0z"/>
<path d="M1431 2356 c-17 -20 -10 -56 12 -70 15 -9 21 -7 33 9 21 28 14 69
-12 73 -11 2 -26 -4 -33 -12z"/>
<path d="M5434 2347 c-3 -8 -4 -30 -2 -49 2 -28 7 -33 28 -33 23 0 25 4 25 45
0 39 -3 45 -23 48 -13 2 -24 -3 -28 -11z m41 -38 c0 -24 -5 -34 -15 -34 -16 0
-25 37 -16 62 10 26 31 8 31 -28z"/>
<path d="M5560 2352 c0 -6 8 -8 19 -5 31 8 35 -17 7 -46 -34 -35 -33 -41 7
-40 25 1 27 3 9 6 l-24 5 22 23 c29 30 23 59 -13 63 -15 2 -27 -1 -27 -6z"/>
<path d="M2384 2335 c-14 -37 26 -69 53 -42 22 22 8 57 -23 57 -14 0 -27 -7
-30 -15z"/>
<path d="M1604 2316 c-11 -28 1 -51 25 -51 32 0 49 28 32 49 -17 20 -50 21
-57 2z"/>
<path d="M2029 2294 c-18 -22 0 -47 39 -55 24 -5 29 -3 25 9 -4 8 2 21 12 28
18 13 18 14 -2 14 -12 0 -25 5 -28 10 -9 15 -31 12 -46 -6z"/>
<path d="M5343 2303 c15 -2 37 -2 50 0 12 2 0 4 -28 4 -27 0 -38 -2 -22 -4z"/>
<path d="M2128 2257 c-3 -19 -2 -25 4 -19 6 6 8 18 6 28 -3 14 -5 12 -10 -9z"/>
<path d="M1632 2238 c-16 -16 -15 -33 4 -48 22 -19 54 12 38 37 -14 22 -27 26
-42 11z m35 -14 c8 -21 -13 -42 -28 -27 -13 13 -5 43 11 43 6 0 13 -7 17 -16z"/>
<path d="M3113 2184 c-10 -26 11 -48 48 -51 51 -3 69 5 69 32 0 26 -13 32 -73
34 -27 1 -39 -3 -44 -15z"/>
<path d="M3902 2131 l-24 -6 21 -19 c18 -17 21 -17 27 -3 9 25 1 34 -24 28z"/>
<path d="M2274 1946 c-10 -26 4 -48 28 -44 17 2 23 10 23 28 0 18 -6 26 -23
28 -13 2 -25 -3 -28 -12z m46 -16 c0 -13 -7 -20 -20 -20 -19 0 -27 20 -13 33
13 14 33 6 33 -13z"/>
<path d="M5192 1788 c-17 -17 -15 -63 4 -79 22 -18 48 0 52 35 6 45 -29 71
-56 44z m38 -18 c11 -21 -2 -60 -20 -60 -13 0 -22 37 -15 60 3 11 10 20 15 20
5 0 14 -9 20 -20z"/>
<path d="M5308 1775 c-16 -36 4 -78 35 -73 17 2 22 10 22 33 0 23 -5 31 -25
36 l-25 6 25 11 c25 11 25 11 2 11 -15 1 -26 -8 -34 -24z m49 -31 c8 -21 -13
-42 -28 -27 -13 13 -5 43 11 43 6 0 13 -7 17 -16z"/>
<path d="M2521 1752 c-14 -27 8 -55 40 -50 19 2 24 9 24 33 0 25 -4 31 -27 33
-18 2 -30 -3 -37 -16z"/>
<path d="M5260 1710 c0 -5 5 -10 10 -10 6 0 10 5 10 10 0 6 -4 10 -10 10 -5 0
-10 -4 -10 -10z"/>
<path d="M2567 1574 c-13 -14 -7 -43 12 -53 24 -13 55 8 50 35 -4 19 -48 32
-62 18z"/>
<path d="M4892 1478 c-17 -17 -15 -63 4 -79 22 -18 48 0 52 35 6 45 -29 71
-56 44z m38 -18 c11 -21 -2 -60 -20 -60 -13 0 -22 37 -15 60 3 11 10 20 15 20
5 0 14 -9 20 -20z"/>
<path d="M5021 1461 c-26 -36 -26 -41 -1 -41 11 0 20 -7 20 -15 0 -21 18 -19
22 3 5 26 -3 82 -12 82 -5 0 -18 -13 -29 -29z m19 -16 c0 -8 -7 -15 -16 -15
-14 0 -14 3 -4 15 7 8 14 15 16 15 2 0 4 -7 4 -15z"/>
<path d="M4960 1400 c0 -5 5 -10 10 -10 6 0 10 5 10 10 0 6 -4 10 -10 10 -5 0
-10 -4 -10 -10z"/>
<path d="M4572 1138 c-17 -17 -15 -63 4 -79 22 -18 48 0 52 35 6 45 -29 71
-56 44z m38 -18 c11 -21 -2 -60 -20 -60 -13 0 -22 37 -15 60 3 11 10 20 15 20
5 0 14 -9 20 -20z"/>
<path d="M4686 1142 c-3 -6 2 -8 14 -5 34 9 36 -24 4 -58 l-28 -29 40 1 c31 2
34 3 10 6 l-28 5 22 23 c12 13 20 31 18 42 -3 19 -42 30 -52 15z"/>
<path d="M614 1127 c-3 -8 -4 -30 -2 -49 2 -28 7 -33 28 -33 23 0 25 4 25 45
0 39 -3 45 -23 48 -13 2 -24 -3 -28 -11z m41 -38 c0 -24 -5 -34 -15 -34 -16 0
-25 37 -16 62 10 26 31 8 31 -28z"/>
<path d="M751 1126 c-17 -20 -10 -67 11 -80 25 -15 57 17 42 42 -6 9 -17 17
-25 18 -9 1 -10 0 -1 -3 18 -6 15 -53 -3 -53 -8 0 -15 5 -16 10 -5 44 -1 56
21 67 23 12 24 13 4 13 -12 0 -27 -6 -33 -14z"/>
<path d="M523 1083 c15 -2 37 -2 50 0 12 2 0 4 -28 4 -27 0 -38 -2 -22 -4z"/>
<path d="M4640 1060 c0 -5 5 -10 10 -10 6 0 10 5 10 10 0 6 -4 10 -10 10 -5 0
-10 -4 -10 -10z"/>
<path d="M994 997 c-3 -8 -4 -30 -2 -49 2 -28 7 -33 28 -33 23 0 25 4 25 45 0
39 -3 45 -23 48 -13 2 -24 -3 -28 -11z m41 -38 c0 -24 -5 -34 -15 -34 -16 0
-25 37 -16 62 10 26 31 8 31 -28z"/>
<path d="M1137 981 c-22 -37 -21 -41 3 -41 12 0 20 -7 20 -17 0 -15 2 -14 14
3 8 10 10 21 5 22 -5 2 -9 17 -9 33 0 37 -11 37 -33 0z m23 -11 c0 -11 -7 -20
-15 -20 -13 0 -14 4 -5 20 6 11 13 20 15 20 3 0 5 -9 5 -20z"/>
<path d="M903 953 c15 -2 37 -2 50 0 12 2 0 4 -28 4 -27 0 -38 -2 -22 -4z"/>
<path d="M1384 867 c-3 -8 -4 -30 -2 -49 2 -28 7 -33 28 -33 23 0 25 4 25 45
0 39 -3 45 -23 48 -13 2 -24 -3 -28 -11z m41 -38 c0 -24 -5 -34 -15 -34 -16 0
-25 37 -16 62 10 26 31 8 31 -28z"/>
<path d="M1510 872 c0 -6 8 -8 19 -5 31 8 35 -17 7 -46 -34 -35 -33 -41 7 -40
25 1 27 3 9 6 l-24 5 22 23 c29 30 23 59 -13 63 -15 2 -27 -1 -27 -6z"/>
<path d="M1293 823 c15 -2 37 -2 50 0 12 2 0 4 -28 4 -27 0 -38 -2 -22 -4z"/>
<path d="M4242 798 c-17 -17 -15 -63 4 -79 22 -18 48 0 52 35 6 45 -29 71 -56
44z m38 -18 c11 -21 -2 -60 -20 -60 -13 0 -22 37 -15 60 3 11 10 20 15 20 5 0
14 -9 20 -20z"/>
<path d="M4362 798 c-17 -17 -15 -63 4 -79 22 -18 48 0 52 35 6 45 -29 71 -56
44z m43 -18 c7 -23 -2 -60 -15 -60 -5 0 -14 9 -20 20 -11 21 2 60 20 60 5 0
12 -9 15 -20z"/>
<path d="M1732 738 c-17 -17 -15 -63 4 -79 22 -18 48 0 52 35 6 45 -29 71 -56
44z m38 -18 c11 -21 -2 -60 -20 -60 -5 0 -12 9 -15 20 -7 23 2 60 15 60 5 0
14 -9 20 -20z"/>
<path d="M1852 738 c-17 -17 -15 -63 4 -79 22 -18 48 0 52 35 6 45 -29 71 -56
44z m43 -18 c7 -23 -2 -60 -15 -60 -18 0 -31 39 -20 60 6 11 15 20 20 20 5 0
12 -9 15 -20z"/>
<path d="M4310 720 c0 -5 5 -10 10 -10 6 0 10 5 10 10 0 6 -4 10 -10 10 -5 0
-10 -4 -10 -10z"/>
<path d="M1800 660 c0 -5 5 -10 10 -10 6 0 10 5 10 10 0 6 -4 10 -10 10 -5 0
-10 -4 -10 -10z"/>
<path d="M2132 608 c-17 -17 -15 -63 4 -79 22 -18 48 0 52 35 6 45 -29 71 -56
44z m38 -18 c11 -21 -2 -60 -20 -60 -5 0 -12 9 -15 20 -7 23 2 60 15 60 5 0
14 -9 20 -20z"/>
<path d="M2246 612 c-3 -6 2 -8 14 -5 34 9 36 -24 4 -58 l-28 -29 40 1 c31 2
34 3 10 6 l-28 5 22 23 c12 13 20 31 18 42 -3 19 -42 30 -52 15z"/>
<path d="M2200 530 c0 -5 5 -10 10 -10 6 0 10 5 10 10 0 6 -4 10 -10 10 -5 0
-10 -4 -10 -10z"/>
<path d="M2532 478 c-17 -17 -15 -63 4 -79 22 -18 48 0 52 35 6 45 -29 71 -56
44z m38 -18 c11 -21 -2 -60 -20 -60 -5 0 -12 9 -15 20 -7 23 2 60 15 60 5 0
14 -9 20 -20z"/>
<path d="M2661 461 c-26 -36 -26 -41 -1 -41 11 0 20 -7 20 -15 0 -21 18 -19
22 3 5 26 -3 82 -12 82 -5 0 -18 -13 -29 -29z m19 -16 c0 -8 -7 -15 -16 -15
-14 0 -14 3 -4 15 7 8 14 15 16 15 2 0 4 -7 4 -15z"/>
<path d="M3944 437 c-3 -8 -4 -30 -2 -49 2 -28 7 -33 28 -33 23 0 25 4 25 45
0 39 -3 45 -23 48 -13 2 -24 -3 -28 -11z m41 -38 c0 -24 -5 -34 -15 -34 -16 0
-25 37 -16 62 10 26 31 8 31 -28z"/>
<path d="M4070 442 c0 -6 8 -8 19 -5 31 8 35 -17 7 -46 -34 -35 -33 -41 7 -40
25 1 27 3 9 6 l-24 5 22 23 c29 30 23 59 -13 63 -15 2 -27 -1 -27 -6z"/>
<path d="M2600 400 c0 -5 5 -10 10 -10 6 0 10 5 10 10 0 6 -4 10 -10 10 -5 0
-10 -4 -10 -10z"/>
<path d="M3853 393 c15 -2 37 -2 50 0 12 2 0 4 -28 4 -27 0 -38 -2 -22 -4z"/>
<path d="M2942 338 c-17 -17 -15 -63 4 -79 22 -18 48 0 52 35 6 45 -29 71 -56
44z m38 -18 c11 -21 -2 -60 -20 -60 -13 0 -22 37 -15 60 3 11 10 20 15 20 5 0
14 -9 20 -20z"/>
<path d="M3058 325 c-16 -36 4 -78 35 -73 17 2 22 10 22 33 0 23 -5 31 -25 36
l-25 6 25 11 c25 11 25 11 2 11 -15 1 -26 -8 -34 -24z m49 -31 c8 -21 -13 -42
-28 -27 -13 13 -5 43 11 43 6 0 13 -7 17 -16z"/>
<path d="M3010 260 c0 -5 5 -10 10 -10 6 0 10 5 10 10 0 6 -4 10 -10 10 -5 0
-10 -4 -10 -10z"/>
</g>
</svg>
