<?xml version="1.0" standalone="no"?>
<!DOCTYPE svg PUBLIC "-//W3C//DTD SVG 20010904//EN"
 "http://www.w3.org/TR/2001/REC-SVG-20010904/DTD/svg10.dtd">
<svg version="1.0" xmlns="http://www.w3.org/2000/svg"
 width="559.000000pt" height="413.000000pt" viewBox="0 0 559.000000 413.000000"
 preserveAspectRatio="xMidYMid meet">

<g transform="translate(0.000000,413.000000) scale(0.100000,-0.100000)"
fill="#000000" stroke="none">
<path d="M530 3781 l0 -250 -27 -4 -28 -4 28 -2 27 -1 0 -244 0 -245 -27 -4
-28 -4 28 -2 27 -1 0 -249 0 -250 -27 -4 -28 -4 28 -2 27 -1 0 -244 0 -245
-27 -4 -28 -4 28 -2 27 -1 0 -244 0 -245 -27 -4 -28 -4 28 -2 27 -1 0 -249 0
-250 -27 -4 -28 -4 28 -2 27 -1 0 -244 0 -245 -27 -4 -28 -4 28 -2 27 -1 0
-85 0 -85 144 0 145 0 4 -28 4 -27 2 28 1 27 274 0 275 0 4 -27 4 -28 2 28 1
27 274 0 275 0 4 -27 4 -28 2 28 1 27 269 0 270 0 4 -27 4 -28 2 28 1 27 274
0 275 0 4 -27 4 -28 2 28 1 27 274 0 275 0 4 -27 4 -28 2 28 1 27 269 0 270 0
4 -28 4 -27 2 28 1 27 274 0 275 0 4 -27 4 -28 2 28 1 27 274 0 275 0 4 -27 4
-28 2 28 1 27 105 0 105 0 0 1850 0 1850 -2485 0 -2485 0 0 -249z m4960 -1601
l0 -1840 -2475 0 -2475 0 0 1840 0 1840 2475 0 2475 0 0 -1840z"/>
<path d="M1305 3903 c-25 -6 -55 -32 -55 -48 0 -23 -56 -65 -86 -65 -21 0 -40
-10 -62 -33 -37 -38 -38 -44 -15 -69 23 -26 26 -56 8 -74 -22 -22 -19 -61 6
-75 31 -16 69 6 69 40 0 30 38 61 50 41 4 -7 23 -10 43 -9 32 3 39 -1 67 -39
16 -23 37 -42 45 -42 9 0 12 -6 8 -15 -6 -17 23 -55 42 -55 7 0 20 9 31 21 20
22 12 46 -22 64 -10 6 -20 19 -21 30 -1 11 -8 37 -15 57 -10 29 -17 36 -30 32
-24 -7 -23 8 3 29 22 19 22 14 7 165 -5 45 -24 57 -73 45z m55 -18 c19 -22 7
-41 -13 -21 -18 19 -22 36 -8 36 5 0 14 -7 21 -15z m-75 -14 c-3 -6 -11 -11
-17 -11 -6 0 -6 6 2 15 14 17 26 13 15 -4z m-185 -158 c0 -20 -3 -24 -11 -16
-7 7 -9 19 -6 27 10 24 17 19 17 -11z m71 -92 c-8 -5 -20 -7 -28 -4 -21 8 -15
13 15 13 20 0 23 -3 13 -9z m-23 -49 c-5 -41 -28 -39 -28 2 0 28 3 34 16 29 9
-3 14 -15 12 -31z m260 2 c-6 -30 -35 -41 -55 -21 -16 16 -16 17 4 17 12 0 25
5 28 10 10 16 27 11 23 -6z m46 -56 c8 -14 7 -21 -6 -34 -30 -30 -75 9 -48 42
16 18 39 15 54 -8z"/>
<path d="M2731 3886 c-7 -8 -11 -32 -9 -53 3 -33 6 -38 27 -38 53 0 53 63 0
75 -24 6 -24 6 6 17 24 9 26 12 9 12 -12 1 -27 -5 -33 -13z m34 -56 c0 -13 -6
-25 -12 -27 -16 -6 -27 21 -19 43 9 23 31 11 31 -16z"/>
<path d="M3721 3886 c-7 -8 -11 -32 -9 -53 3 -33 6 -38 27 -38 53 0 53 63 0
75 -24 6 -24 6 6 17 24 9 26 12 9 12 -12 1 -27 -5 -33 -13z m34 -56 c0 -13 -6
-25 -12 -27 -16 -6 -27 21 -19 43 9 23 31 11 31 -16z"/>
<path d="M2622 3878 c-7 -7 -12 -24 -12 -38 0 -31 17 -50 45 -50 28 0 45 19
45 50 0 31 -17 50 -45 50 -12 0 -26 -5 -33 -12z m58 -18 c20 -38 -19 -77 -48
-48 -23 23 -7 68 25 68 7 0 17 -9 23 -20z"/>
<path d="M2815 3829 c12 -34 13 -45 3 -57 -11 -12 -10 -14 1 -11 15 5 55 98
46 107 -3 3 -10 -10 -16 -28 l-12 -32 -13 31 c-19 46 -26 38 -9 -10z"/>
<path d="M2891 3852 c-1 -16 6 -26 19 -29 11 -3 20 -12 20 -19 0 -8 5 -14 10
-14 6 0 10 18 10 40 0 22 -4 40 -10 40 -5 0 -10 -9 -10 -20 0 -27 -28 -25 -33
3 -4 22 -4 22 -6 -1z"/>
<path d="M3000 3859 l25 -12 -25 -6 c-36 -10 -34 -46 3 -47 26 -1 28 1 25 35
-3 30 -7 36 -28 38 l-25 3 25 -11z m20 -38 c0 -14 -18 -23 -30 -16 -6 4 -8 11
-5 16 8 12 35 12 35 0z"/>
<path d="M3063 3830 c0 -25 2 -35 4 -22 5 28 19 29 26 1 4 -15 12 -20 29 -17
19 2 23 9 23 38 0 29 -4 36 -23 38 -13 2 -25 -3 -28 -12 -8 -21 -21 -20 -27 2
-3 9 -5 -3 -4 -28z m72 0 c0 -13 -6 -25 -12 -27 -16 -6 -27 21 -19 43 9 23 31
11 31 -16z"/>
<path d="M3170 3830 l0 -40 54 0 c34 0 57 -5 60 -12 4 -7 4 -2 1 12 -2 14 -5
37 -5 53 0 15 -4 27 -10 27 -5 0 -10 -16 -10 -35 0 -50 -27 -48 -33 3 l-4 37
-1 -37 c-3 -51 -32 -54 -32 -3 0 19 -4 35 -10 35 -5 0 -10 -18 -10 -40z"/>
<path d="M3330 3858 l25 -11 -25 -6 c-16 -4 -25 -14 -25 -26 0 -16 7 -20 33
-22 26 -1 32 3 32 19 0 32 -19 58 -43 57 -21 0 -21 -1 3 -11z m20 -37 c0 -14
-18 -23 -30 -16 -6 4 -8 11 -5 16 8 12 35 12 35 0z"/>
<path d="M3393 3854 c-3 -8 -1 -20 5 -26 9 -9 8 -16 -1 -27 -8 -12 -6 -11 9 2
11 9 23 17 27 17 3 0 8 -8 10 -17 3 -10 5 1 6 25 1 39 -1 42 -24 42 -14 0 -28
-7 -32 -16z m47 -9 c0 -8 -6 -15 -14 -15 -17 0 -28 14 -19 24 12 12 33 6 33
-9z"/>
<path d="M3520 3830 c0 -39 1 -41 28 -38 24 3 27 7 27 38 -1 30 -4 35 -28 38
-25 3 -27 1 -27 -38z m40 20 c0 -5 -7 -10 -15 -10 -8 0 -15 5 -15 10 0 6 7 10
15 10 8 0 15 -4 15 -10z m3 -35 c1 -5 -6 -11 -15 -13 -11 -2 -18 3 -18 13 0
17 30 18 33 0z"/>
<path d="M3601 3832 c-1 -42 0 -43 27 -40 34 4 39 41 5 46 -12 2 -24 11 -26
20 -3 9 -5 -2 -6 -26z m44 -12 c3 -6 -1 -13 -10 -16 -19 -8 -30 0 -20 15 8 14
22 14 30 1z"/>
<path d="M3670 3830 c0 -22 5 -40 10 -40 6 0 10 18 10 40 0 22 -4 40 -10 40
-5 0 -10 -18 -10 -40z"/>
<path d="M3802 3858 c-27 -27 -3 -73 35 -66 27 5 25 72 -2 76 -11 1 -26 -3
-33 -10z m43 -28 c0 -13 -6 -25 -12 -27 -16 -6 -27 21 -19 43 9 23 31 11 31
-16z"/>
<path d="M3880 3815 c0 -30 5 -55 10 -55 6 0 10 7 10 15 0 8 9 15 19 15 22 0
35 30 26 60 -4 14 -15 20 -36 20 -29 0 -29 -1 -29 -55z m54 30 c7 -18 -2 -45
-15 -45 -13 0 -22 27 -15 45 3 8 10 15 15 15 5 0 11 -7 15 -15z"/>
<path d="M3972 3830 c-1 -43 -1 -44 12 -21 l14 24 11 -21 c6 -12 16 -22 22
-22 5 0 2 11 -7 25 -13 20 -14 28 -4 40 7 9 8 15 2 15 -5 0 -12 -7 -16 -15 -7
-20 -24 -19 -29 3 -3 9 -5 -3 -5 -28z"/>
<path d="M4078 3863 c12 -2 22 -8 22 -11 0 -4 -10 -12 -22 -17 -34 -15 -29
-39 10 -43 29 -3 32 -1 32 25 0 35 -16 54 -44 52 -19 -2 -19 -2 2 -6z m20 -45
c-6 -18 -28 -21 -28 -4 0 9 7 16 16 16 9 0 14 -5 12 -12z"/>
<path d="M4192 3828 l1 -43 4 38 c3 28 9 37 23 37 14 0 20 -9 23 -37 l4 -38 1
43 c2 40 1 42 -28 42 -29 0 -30 -2 -28 -42z"/>
<path d="M4282 3858 c-27 -27 -3 -73 35 -66 27 5 25 72 -2 76 -11 1 -26 -3
-33 -10z m43 -28 c0 -13 -6 -25 -12 -27 -16 -6 -27 21 -19 43 9 23 31 11 31
-16z"/>
<path d="M4377 3848 c-2 -13 -8 -32 -13 -43 -7 -18 -6 -18 9 -6 9 7 17 24 17
37 0 13 5 24 10 24 6 0 10 -16 10 -35 0 -19 5 -35 10 -35 6 0 10 18 10 40 0
35 -3 40 -24 40 -16 0 -25 -7 -29 -22z"/>
<path d="M4454 3856 c-11 -29 1 -61 23 -64 29 -4 48 30 33 58 -12 23 -48 27
-56 6z m41 -26 c0 -13 -6 -25 -12 -27 -16 -6 -27 21 -19 43 9 23 31 11 31 -16z"/>
<path d="M4549 3858 c11 -15 11 -22 -3 -43 -9 -14 -12 -25 -7 -25 5 0 11 7 15
15 8 21 26 19 26 -2 1 -14 4 -13 14 6 l14 24 12 -22 c6 -13 14 -20 17 -17 3 3
0 13 -7 22 -11 12 -11 20 -2 35 8 12 8 19 2 19 -6 0 -13 -7 -16 -15 -8 -20
-21 -19 -27 3 -4 15 -5 15 -6 -2 -1 -19 -1 -19 -23 0 -18 15 -20 16 -9 2z"/>
<path d="M4672 3858 c-26 -26 -6 -69 33 -67 17 1 17 2 -4 8 -37 10 -38 31 -2
31 17 0 31 4 31 8 0 12 -22 32 -35 32 -6 0 -16 -5 -23 -12z m43 -8 c4 -6 -5
-10 -20 -10 -15 0 -24 4 -20 10 3 6 12 10 20 10 8 0 17 -4 20 -10z"/>
<path d="M4753 3830 c0 -25 2 -35 4 -22 3 13 12 22 23 22 11 0 20 -9 23 -22 2
-13 4 -3 4 22 1 25 -1 37 -4 28 -2 -10 -13 -18 -23 -18 -10 0 -21 8 -23 18 -3
9 -5 -3 -4 -28z"/>
<path d="M4841 3833 c-1 -49 12 -55 33 -15 l15 27 1 -27 c0 -16 5 -28 10 -28
6 0 10 18 10 40 0 47 -12 51 -37 13 l-18 -27 -6 29 c-6 27 -7 25 -8 -12z"/>
<path d="M4933 3854 c-3 -8 -1 -20 5 -26 9 -9 8 -16 -1 -27 -8 -12 -6 -11 9 2
11 9 23 17 27 17 3 0 8 -8 10 -17 3 -10 5 1 6 25 1 39 -1 42 -24 42 -14 0 -28
-7 -32 -16z m47 -9 c0 -8 -6 -15 -14 -15 -17 0 -28 14 -19 24 12 12 33 6 33
-9z"/>
<path d="M5060 3850 c-15 -27 4 -60 33 -59 l22 0 -22 9 c-14 6 -23 18 -23 30
0 12 9 24 23 30 l22 9 -22 0 c-13 1 -27 -8 -33 -19z"/>
<path d="M5142 3863 c11 -3 18 -17 21 -41 l4 -37 1 37 c1 25 7 38 20 41 9 3
-1 5 -23 5 -22 0 -32 -2 -23 -5z"/>
<path d="M5220 3855 c-26 -31 13 -82 44 -56 19 16 21 42 4 59 -16 16 -33 15
-48 -3z m44 -10 c7 -20 -3 -45 -19 -45 -16 0 -26 25 -19 45 4 8 12 15 19 15 7
0 15 -7 19 -15z"/>
<path d="M5308 3863 c0 -5 -1 -22 -2 -40 -1 -28 1 -30 15 -17 20 18 27 18 32
-3 3 -10 5 1 6 25 1 38 -1 42 -24 42 -14 0 -26 -3 -27 -7z m42 -18 c0 -8 -6
-15 -14 -15 -17 0 -28 14 -19 24 12 12 33 6 33 -9z"/>
<path d="M3522 3678 c-17 -17 -15 -73 4 -89 11 -9 20 -10 32 -2 26 16 21 55
-8 70 l-24 12 24 10 c22 9 23 10 5 10 -12 1 -26 -4 -33 -11z m42 -43 c7 -20
-3 -45 -19 -45 -7 0 -15 7 -19 15 -7 20 3 45 19 45 7 0 15 -7 19 -15z"/>
<path d="M2617 3673 c18 -4 23 -12 26 -51 l3 -47 2 47 c2 40 5 47 25 51 12 2
0 4 -28 4 -27 0 -40 -2 -28 -4z"/>
<path d="M2700 3641 c-15 -29 3 -61 35 -61 14 0 25 4 25 8 0 5 -10 8 -21 8
-12 -1 -24 5 -26 12 -3 7 5 12 22 12 20 0 26 4 23 18 -5 25 -44 27 -58 3z m45
-1 c3 -5 -3 -10 -15 -10 -12 0 -18 5 -15 10 3 6 10 10 15 10 5 0 12 -4 15 -10z"/>
<path d="M2792 3648 c-27 -27 -2 -74 35 -65 15 4 14 5 -3 6 -41 2 -41 56 -1
64 21 4 21 4 2 6 -12 0 -26 -4 -33 -11z"/>
<path d="M2862 3653 c11 -3 18 -17 21 -41 l4 -37 1 37 c1 25 7 38 20 41 9 3
-1 5 -23 5 -22 0 -32 -2 -23 -5z"/>
<path d="M2944 3646 c-3 -8 -4 -25 -2 -38 2 -17 9 -23 28 -23 22 0 25 4 25 35
0 29 -4 36 -23 38 -13 2 -24 -3 -28 -12z m41 -26 c0 -13 -6 -25 -12 -27 -16
-6 -27 21 -19 43 9 23 31 11 31 -16z"/>
<path d="M3020 3621 c0 -39 2 -41 29 -41 28 0 47 21 33 35 -4 3 -7 14 -7 23 0
11 -10 18 -27 20 -27 3 -28 1 -28 -37z m50 19 c0 -5 -7 -10 -15 -10 -8 0 -15
5 -15 10 0 6 7 10 15 10 8 0 15 -4 15 -10z m0 -35 c0 -8 -7 -15 -15 -15 -8 0
-15 7 -15 15 0 8 7 15 15 15 8 0 15 -7 15 -15z"/>
<path d="M3110 3651 c0 -5 9 -7 20 -4 11 3 20 0 20 -6 0 -6 -6 -11 -13 -11
-19 0 -36 -20 -30 -36 3 -8 18 -14 34 -14 25 0 29 4 29 28 0 15 -5 33 -12 40
-14 14 -48 16 -48 3z m38 -43 c-6 -18 -28 -21 -28 -4 0 9 7 16 16 16 9 0 14
-5 12 -12z"/>
<path d="M3197 3647 c-3 -8 -1 -20 3 -28 5 -8 4 -19 -2 -26 -7 -9 -7 -13 0
-13 5 0 12 7 16 15 7 20 24 19 29 -2 3 -10 5 1 6 25 1 38 -1 42 -23 42 -13 0
-26 -6 -29 -13z m43 -12 c0 -8 -7 -15 -15 -15 -8 0 -15 7 -15 15 0 8 7 15 15
15 8 0 15 -7 15 -15z"/>
<path d="M3320 3620 c0 -39 1 -41 28 -38 24 3 27 7 27 38 0 31 -3 35 -27 38
-27 3 -28 1 -28 -38z m40 20 c0 -5 -7 -10 -15 -10 -8 0 -15 5 -15 10 0 6 7 10
15 10 8 0 15 -4 15 -10z m5 -30 c3 -6 -1 -13 -10 -16 -19 -8 -30 0 -20 15 8
14 22 14 30 1z"/>
<path d="M3400 3619 c0 -38 2 -40 27 -37 35 4 45 37 14 45 -12 3 -21 12 -21
19 0 8 -4 14 -10 14 -5 0 -10 -18 -10 -41z m50 -14 c0 -8 -7 -15 -15 -15 -8 0
-15 7 -15 15 0 8 7 15 15 15 8 0 15 -7 15 -15z"/>
<path d="M3483 3620 c0 -25 2 -35 4 -22 2 12 2 32 0 45 -2 12 -4 2 -4 -23z"/>
<path d="M3604 3646 c-3 -8 -4 -25 -2 -38 2 -17 9 -23 28 -23 22 0 25 4 25 35
0 29 -4 36 -23 38 -13 2 -24 -3 -28 -12z m41 -26 c0 -13 -6 -25 -12 -27 -16
-6 -27 21 -19 43 9 23 31 11 31 -16z"/>
<path d="M3680 3604 c0 -30 5 -54 10 -54 6 0 10 8 10 18 0 13 7 18 23 18 19
-1 22 4 22 34 0 32 -2 35 -32 37 l-33 1 0 -54z m55 16 c0 -13 -6 -25 -12 -27
-16 -6 -27 21 -19 43 9 23 31 11 31 -16z"/>
<path d="M3770 3620 c0 -22 5 -40 10 -40 6 0 10 7 10 15 0 8 5 15 10 15 6 0
13 -7 16 -15 4 -8 10 -15 15 -15 5 0 2 11 -7 25 -14 21 -14 28 -3 43 11 14 9
13 -9 -2 -19 -17 -22 -17 -22 -3 0 10 -4 17 -10 17 -5 0 -10 -18 -10 -40z"/>
<path d="M3870 3653 c43 -14 45 -16 20 -22 -16 -4 -26 -15 -28 -29 -3 -19 1
-22 27 -20 25 2 31 7 31 24 0 39 -11 54 -39 53 -14 0 -19 -3 -11 -6z m34 -48
c-4 -8 -12 -15 -20 -15 -8 0 -14 7 -14 15 0 8 9 15 20 15 13 0 18 -5 14 -15z"/>
<path d="M3992 3618 l1 -43 4 38 c3 28 9 37 23 37 14 0 20 -9 23 -37 l4 -38 1
43 c2 40 1 42 -28 42 -29 0 -30 -2 -28 -42z"/>
<path d="M4084 3646 c-3 -8 -4 -25 -2 -38 2 -17 9 -23 28 -23 22 0 25 4 25 35
0 29 -4 36 -23 38 -13 2 -24 -3 -28 -12z m41 -26 c0 -13 -6 -25 -12 -27 -16
-6 -27 21 -19 43 9 23 31 11 31 -16z"/>
<path d="M4180 3639 c0 -11 -5 -30 -12 -42 -10 -20 -10 -21 5 -8 10 7 17 24
17 37 0 41 28 29 33 -13 l4 -38 1 43 c2 39 0 42 -23 42 -19 0 -25 -5 -25 -21z"/>
<path d="M4260 3645 c-26 -31 13 -82 44 -56 19 16 21 42 4 59 -16 16 -33 15
-48 -3z m44 -10 c7 -20 -3 -45 -19 -45 -7 0 -15 7 -19 15 -7 20 3 45 19 45 7
0 15 -7 19 -15z"/>
<path d="M4349 3646 c9 -11 9 -20 2 -35 -17 -31 -13 -35 9 -10 l19 24 1 -22
c0 -13 5 -23 10 -23 6 0 10 10 10 23 l1 22 18 -22 c26 -31 35 -29 15 2 -14 21
-14 28 -3 43 11 14 9 13 -9 -2 -19 -17 -22 -17 -22 -3 0 23 -20 22 -20 0 -1
-17 -1 -17 -14 0 -7 9 -17 17 -21 17 -4 0 -2 -6 4 -14z"/>
<path d="M4472 3648 c-15 -15 -15 -41 0 -56 14 -14 44 -16 52 -4 3 5 -4 8 -16
8 -12 -1 -23 5 -25 12 -3 7 5 12 22 12 20 0 26 4 23 18 -4 21 -39 27 -56 10z
m43 -8 c3 -5 -3 -10 -14 -10 -12 0 -21 5 -21 10 0 6 6 10 14 10 8 0 18 -4 21
-10z"/>
<path d="M4552 3620 c-1 -36 1 -41 8 -22 12 27 40 29 40 2 0 -11 5 -20 10 -20
6 0 10 18 10 40 0 22 -4 40 -10 40 -5 0 -10 -7 -10 -15 0 -21 -38 -19 -43 3
-3 9 -5 -3 -5 -28z"/>
<path d="M4640 3619 c0 -28 4 -39 13 -36 6 2 12 9 11 15 -1 7 -2 23 -2 37 -3
42 -22 28 -22 -16z"/>
<path d="M4680 3641 c-13 -25 -13 -41 0 -21 8 12 10 9 10 -12 0 -16 5 -28 10
-28 6 0 10 18 10 40 0 43 -13 52 -30 21z"/>
<path d="M4737 3647 c-3 -8 -1 -20 3 -28 5 -8 4 -19 -2 -26 -7 -9 -7 -13 0
-13 5 0 12 7 16 15 7 20 24 19 29 -2 3 -10 5 1 6 25 1 38 -1 42 -23 42 -13 0
-26 -6 -29 -13z m43 -12 c0 -8 -7 -15 -15 -15 -8 0 -15 7 -15 15 0 8 7 15 15
15 8 0 15 -7 15 -15z"/>
<path d="M4864 3646 c-12 -31 0 -61 26 -63 25 -3 25 -3 3 7 -13 5 -23 18 -23
30 0 12 9 24 23 30 l22 9 -23 0 c-12 1 -25 -5 -28 -13z"/>
<path d="M4942 3653 c11 -3 18 -17 21 -41 l4 -37 1 37 c1 25 7 38 20 41 9 3
-1 5 -23 5 -22 0 -32 -2 -23 -5z"/>
<path d="M5022 3648 c-27 -27 -3 -73 35 -66 27 5 25 72 -2 76 -11 1 -26 -3
-33 -10z m43 -28 c0 -13 -6 -25 -12 -27 -16 -6 -27 21 -19 43 9 23 31 11 31
-16z"/>
<path d="M5103 3644 c-3 -8 -1 -20 5 -26 8 -8 9 -15 1 -25 -7 -8 -8 -13 -1
-13 5 0 12 7 16 15 7 20 24 19 29 -2 3 -10 5 1 6 25 1 39 -1 42 -24 42 -14 0
-28 -7 -32 -16z m47 -9 c0 -8 -7 -15 -15 -15 -8 0 -15 7 -15 15 0 8 7 15 15
15 8 0 15 -7 15 -15z"/>
<path d="M1205 3569 c-4 -11 -5 -23 -2 -25 6 -6 37 25 37 37 0 18 -29 9 -35
-12z"/>
<path d="M1000 3548 c0 -39 57 -63 68 -28 4 12 2 13 -9 3 -17 -13 -31 -7 -47
22 -9 17 -11 17 -12 3z"/>
<path d="M904 3469 c-19 -22 -13 -43 19 -63 12 -8 21 -5 36 8 26 23 26 38 3
59 -24 22 -35 21 -58 -4z m60 -11 c8 -14 7 -21 -6 -34 -30 -30 -75 9 -48 42
16 18 39 15 54 -8z"/>
<path d="M1110 3476 c-28 -34 11 -93 47 -70 32 20 39 41 19 63 -22 24 -49 27
-66 7z m70 -30 c0 -8 -7 -19 -15 -26 -14 -11 -14 -10 -6 12 5 14 7 29 3 34 -4
4 -1 4 6 0 6 -4 12 -13 12 -20z"/>
<path d="M2731 3466 c-7 -8 -11 -32 -9 -53 3 -33 6 -38 27 -38 53 0 53 63 0
75 -24 6 -24 6 6 17 24 9 26 12 9 12 -12 1 -27 -5 -33 -13z m34 -56 c0 -13 -6
-25 -12 -27 -16 -6 -27 21 -19 43 9 23 31 11 31 -16z"/>
<path d="M3721 3466 c-7 -8 -11 -32 -9 -53 3 -33 6 -38 27 -38 53 0 53 63 0
75 -24 6 -24 6 6 17 24 9 26 12 9 12 -12 1 -27 -5 -33 -13z m34 -56 c0 -13 -6
-25 -12 -27 -16 -6 -27 21 -19 43 9 23 31 11 31 -16z"/>
<path d="M4542 3468 c-25 -25 -12 -98 18 -98 44 0 52 56 10 77 l-24 12 24 10
c22 9 23 10 5 10 -12 1 -26 -4 -33 -11z m33 -58 c0 -13 -6 -25 -12 -27 -16 -6
-27 21 -19 43 9 23 31 11 31 -16z"/>
<path d="M2622 3458 c-7 -7 -12 -24 -12 -38 0 -31 17 -50 45 -50 28 0 45 19
45 50 0 31 -17 50 -45 50 -12 0 -26 -5 -33 -12z m58 -18 c20 -38 -19 -77 -48
-48 -23 23 -7 68 25 68 7 0 17 -9 23 -20z"/>
<path d="M2324 3429 c-13 -15 -16 -24 -8 -36 20 -32 41 -38 63 -19 26 23 26
38 3 59 -24 22 -35 21 -58 -4z m60 -11 c8 -14 7 -21 -6 -34 -30 -30 -75 9 -48
42 16 18 39 15 54 -8z"/>
<path d="M2815 3409 c12 -34 13 -45 3 -57 -11 -12 -10 -14 1 -11 15 5 55 98
46 107 -3 3 -10 -10 -16 -28 l-12 -32 -13 31 c-19 46 -26 38 -9 -10z"/>
<path d="M2891 3432 c-1 -16 6 -26 19 -29 11 -3 20 -12 20 -19 0 -8 5 -14 10
-14 6 0 10 18 10 40 0 22 -4 40 -10 40 -5 0 -10 -9 -10 -20 0 -27 -28 -25 -33
3 -4 22 -4 22 -6 -1z"/>
<path d="M3000 3439 l25 -12 -25 -6 c-36 -10 -34 -46 3 -47 26 -1 28 1 25 35
-3 30 -7 36 -28 38 l-25 3 25 -11z m20 -38 c0 -14 -18 -23 -30 -16 -6 4 -8 11
-5 16 8 12 35 12 35 0z"/>
<path d="M3063 3410 c0 -25 2 -35 4 -22 5 28 19 29 26 1 4 -15 12 -20 29 -17
19 2 23 9 23 38 0 29 -4 36 -23 38 -13 2 -25 -3 -28 -12 -8 -21 -21 -20 -27 2
-3 9 -5 -3 -4 -28z m72 0 c0 -13 -6 -25 -12 -27 -16 -6 -27 21 -19 43 9 23 31
11 31 -16z"/>
<path d="M3170 3410 l0 -40 54 0 c34 0 57 -5 60 -12 4 -7 4 -2 1 12 -2 14 -5
37 -5 53 0 15 -4 27 -10 27 -5 0 -10 -16 -10 -35 0 -50 -27 -48 -33 3 l-4 37
-1 -37 c-3 -51 -32 -54 -32 -3 0 19 -4 35 -10 35 -5 0 -10 -18 -10 -40z"/>
<path d="M3330 3438 l25 -11 -25 -6 c-16 -4 -25 -14 -25 -26 0 -16 7 -20 33
-22 26 -1 32 3 32 19 0 32 -19 58 -43 57 -21 0 -21 -1 3 -11z m20 -37 c0 -14
-18 -23 -30 -16 -6 4 -8 11 -5 16 8 12 35 12 35 0z"/>
<path d="M3393 3434 c-3 -8 -1 -20 5 -26 9 -9 8 -16 -1 -27 -8 -12 -6 -11 9 2
11 9 23 17 27 17 3 0 8 -8 10 -17 3 -10 5 1 6 25 1 39 -1 42 -24 42 -14 0 -28
-7 -32 -16z m47 -9 c0 -8 -6 -15 -14 -15 -17 0 -28 14 -19 24 12 12 33 6 33
-9z"/>
<path d="M3520 3410 c0 -39 1 -41 28 -38 24 3 27 7 27 38 -1 30 -4 35 -28 38
-25 3 -27 1 -27 -38z m40 20 c0 -5 -7 -10 -15 -10 -8 0 -15 5 -15 10 0 6 7 10
15 10 8 0 15 -4 15 -10z m3 -35 c1 -5 -6 -11 -15 -13 -11 -2 -18 3 -18 13 0
17 30 18 33 0z"/>
<path d="M3601 3412 c-1 -42 0 -43 27 -40 34 4 39 41 5 46 -12 2 -24 11 -26
20 -3 9 -5 -2 -6 -26z m44 -12 c3 -6 -1 -13 -10 -16 -19 -8 -30 0 -20 15 8 14
22 14 30 1z"/>
<path d="M3670 3410 c0 -22 5 -40 10 -40 6 0 10 18 10 40 0 22 -4 40 -10 40
-5 0 -10 -18 -10 -40z"/>
<path d="M3802 3438 c-27 -27 -3 -73 35 -66 27 5 25 72 -2 76 -11 1 -26 -3
-33 -10z m43 -28 c0 -13 -6 -25 -12 -27 -16 -6 -27 21 -19 43 9 23 31 11 31
-16z"/>
<path d="M3880 3395 c0 -30 5 -55 10 -55 6 0 10 7 10 15 0 8 9 15 19 15 22 0
35 30 26 60 -4 14 -15 20 -36 20 -29 0 -29 -1 -29 -55z m54 30 c7 -18 -2 -45
-15 -45 -13 0 -22 27 -15 45 3 8 10 15 15 15 5 0 11 -7 15 -15z"/>
<path d="M3972 3410 c-1 -43 -1 -44 12 -21 l14 24 11 -21 c6 -12 16 -22 22
-22 5 0 2 11 -7 25 -13 20 -14 28 -4 40 7 9 8 15 2 15 -5 0 -12 -7 -16 -15 -7
-20 -24 -19 -29 3 -3 9 -5 -3 -5 -28z"/>
<path d="M4078 3443 c12 -2 22 -8 22 -11 0 -4 -10 -12 -22 -17 -34 -15 -29
-39 10 -43 29 -3 32 -1 32 25 0 35 -16 54 -44 52 -19 -2 -19 -2 2 -6z m20 -45
c-6 -18 -28 -21 -28 -4 0 9 7 16 16 16 9 0 14 -5 12 -12z"/>
<path d="M4192 3430 c10 -16 10 -24 0 -40 -15 -25 -4 -27 14 -2 12 16 13 16
19 0 4 -10 11 -18 16 -18 5 0 4 9 -3 20 -10 16 -10 24 0 40 13 21 3 27 -15 9
-8 -8 -13 -8 -17 0 -4 6 -11 11 -17 11 -5 0 -4 -9 3 -20z"/>
<path d="M4270 3431 c-15 -29 4 -63 33 -59 18 2 22 10 22 38 0 28 -4 36 -22
38 -14 2 -26 -4 -33 -17z m45 -21 c0 -13 -6 -25 -12 -27 -16 -6 -27 21 -19 43
9 23 31 11 31 -16z"/>
<path d="M4367 3423 c-3 -16 -8 -39 -11 -53 -4 -14 -4 -19 0 -12 3 6 18 12 34
12 16 0 31 -6 34 -12 4 -7 4 -2 1 12 -2 14 -5 37 -5 53 0 22 -5 27 -24 27 -18
0 -25 -7 -29 -27z m43 -13 c0 -22 -5 -30 -18 -30 -15 0 -18 6 -14 30 2 17 10
30 18 30 9 0 14 -11 14 -30z"/>
<path d="M4451 3412 c-1 -42 0 -43 27 -40 34 4 39 41 5 46 -12 2 -24 11 -26
20 -3 9 -5 -2 -6 -26z m42 -17 c1 -5 -6 -11 -15 -13 -11 -2 -18 3 -18 13 0 17
30 18 33 0z"/>
<path d="M4621 3412 c-1 -42 0 -43 27 -40 34 4 39 41 5 46 -12 2 -24 11 -26
20 -3 9 -5 -2 -6 -26z m42 -17 c1 -5 -6 -11 -15 -13 -11 -2 -18 3 -18 13 0 17
30 18 33 0z"/>
<path d="M4693 3410 c0 -25 2 -35 4 -22 2 12 2 32 0 45 -2 12 -4 2 -4 -23z"/>
<path d="M1247 3422 c-22 -24 -21 -35 2 -56 12 -11 27 -15 39 -11 16 5 19 2
16 -12 -3 -11 4 -27 16 -38 23 -20 44 -15 64 18 15 23 -20 60 -51 52 -17 -4
-21 -2 -17 10 7 17 -22 55 -41 55 -7 0 -19 -8 -28 -18z m57 -14 c8 -14 7 -21
-6 -34 -30 -30 -75 9 -48 42 16 18 39 15 54 -8z m70 -60 c8 -14 7 -21 -6 -34
-30 -30 -75 9 -48 42 16 18 39 15 54 -8z"/>
<path d="M857 3382 c-10 -10 -17 -23 -17 -29 0 -18 79 -83 100 -83 21 0 27 15
10 25 -5 3 -7 18 -4 34 5 22 0 32 -21 50 -34 26 -47 26 -68 3z m11 -12 c-7
-10 -14 -17 -17 -15 -4 4 18 35 25 35 2 0 -1 -9 -8 -20z"/>
<path d="M1194 3269 c-19 -22 -13 -43 19 -63 12 -8 21 -5 36 8 26 23 26 38 3
59 -24 22 -35 21 -58 -4z m60 -11 c8 -14 7 -21 -6 -34 -30 -30 -75 9 -48 42
16 18 39 15 54 -8z"/>
<path d="M3522 3258 c-17 -17 -15 -73 4 -89 11 -9 20 -10 32 -2 26 16 21 55
-8 70 l-24 12 24 10 c22 9 23 10 5 10 -12 1 -26 -4 -33 -11z m42 -43 c7 -20
-3 -45 -19 -45 -7 0 -15 7 -19 15 -7 20 3 45 19 45 7 0 15 -7 19 -15z"/>
<path d="M4340 3251 c-25 -47 2 -107 38 -84 26 16 21 55 -8 70 l-24 12 24 10
c24 9 24 10 3 10 -12 1 -27 -8 -33 -18z m45 -52 c0 -28 -29 -38 -39 -13 -7 19
11 47 28 41 6 -2 11 -14 11 -28z"/>
<path d="M2617 3253 c18 -4 23 -12 26 -51 l3 -47 2 47 c2 40 5 47 25 51 12 2
0 4 -28 4 -27 0 -40 -2 -28 -4z"/>
<path d="M795 3230 c-16 -18 -17 -23 -5 -45 18 -34 57 -34 72 0 9 21 8 28 -7
45 -23 25 -37 25 -60 0z m55 -5 c18 -21 5 -45 -25 -45 -14 0 -28 7 -31 15 -7
17 12 45 31 45 7 0 18 -7 25 -15z"/>
<path d="M2326 3224 c-9 -8 -16 -22 -16 -29 0 -18 27 -45 45 -45 18 0 45 27
45 45 0 18 -27 45 -45 45 -7 0 -21 -7 -29 -16z m58 -16 c8 -14 7 -21 -6 -34
-30 -30 -75 9 -48 42 16 18 39 15 54 -8z"/>
<path d="M2700 3221 c-15 -29 3 -61 35 -61 14 0 25 4 25 8 0 5 -10 8 -21 8
-12 -1 -24 5 -26 12 -3 7 5 12 22 12 20 0 26 4 23 18 -5 25 -44 27 -58 3z m45
-1 c3 -5 -3 -10 -15 -10 -12 0 -18 5 -15 10 3 6 10 10 15 10 5 0 12 -4 15 -10z"/>
<path d="M2792 3228 c-27 -27 -2 -74 35 -65 15 4 14 5 -3 6 -41 2 -41 56 -1
64 21 4 21 4 2 6 -12 0 -26 -4 -33 -11z"/>
<path d="M2862 3233 c11 -3 18 -17 21 -41 l4 -37 1 37 c1 25 7 38 20 41 9 3
-1 5 -23 5 -22 0 -32 -2 -23 -5z"/>
<path d="M2944 3226 c-3 -8 -4 -25 -2 -38 2 -17 9 -23 28 -23 22 0 25 4 25 35
0 29 -4 36 -23 38 -13 2 -24 -3 -28 -12z m41 -26 c0 -13 -6 -25 -12 -27 -16
-6 -27 21 -19 43 9 23 31 11 31 -16z"/>
<path d="M3020 3201 c0 -39 2 -41 29 -41 28 0 47 21 33 35 -4 3 -7 14 -7 23 0
11 -10 18 -27 20 -27 3 -28 1 -28 -37z m50 19 c0 -5 -7 -10 -15 -10 -8 0 -15
5 -15 10 0 6 7 10 15 10 8 0 15 -4 15 -10z m0 -35 c0 -8 -7 -15 -15 -15 -8 0
-15 7 -15 15 0 8 7 15 15 15 8 0 15 -7 15 -15z"/>
<path d="M3110 3231 c0 -5 9 -7 20 -4 11 3 20 0 20 -6 0 -6 -6 -11 -13 -11
-19 0 -36 -20 -30 -36 3 -8 18 -14 34 -14 25 0 29 4 29 28 0 15 -5 33 -12 40
-14 14 -48 16 -48 3z m38 -43 c-6 -18 -28 -21 -28 -4 0 9 7 16 16 16 9 0 14
-5 12 -12z"/>
<path d="M3197 3227 c-3 -8 -1 -20 3 -28 5 -8 4 -19 -2 -26 -7 -9 -7 -13 0
-13 5 0 12 7 16 15 7 20 24 19 29 -2 3 -10 5 1 6 25 1 38 -1 42 -23 42 -13 0
-26 -6 -29 -13z m43 -12 c0 -8 -7 -15 -15 -15 -8 0 -15 7 -15 15 0 8 7 15 15
15 8 0 15 -7 15 -15z"/>
<path d="M3320 3200 c0 -39 1 -41 28 -38 24 3 27 7 27 38 0 31 -3 35 -27 38
-27 3 -28 1 -28 -38z m40 20 c0 -5 -7 -10 -15 -10 -8 0 -15 5 -15 10 0 6 7 10
15 10 8 0 15 -4 15 -10z m5 -30 c3 -6 -1 -13 -10 -16 -19 -8 -30 0 -20 15 8
14 22 14 30 1z"/>
<path d="M3400 3199 c0 -38 2 -40 27 -37 35 4 45 37 14 45 -12 3 -21 12 -21
19 0 8 -4 14 -10 14 -5 0 -10 -18 -10 -41z m50 -14 c0 -8 -7 -15 -15 -15 -8 0
-15 7 -15 15 0 8 7 15 15 15 8 0 15 -7 15 -15z"/>
<path d="M3483 3200 c0 -25 2 -35 4 -22 2 12 2 32 0 45 -2 12 -4 2 -4 -23z"/>
<path d="M3604 3226 c-3 -8 -4 -25 -2 -38 2 -17 9 -23 28 -23 22 0 25 4 25 35
0 29 -4 36 -23 38 -13 2 -24 -3 -28 -12z m41 -26 c0 -13 -6 -25 -12 -27 -16
-6 -27 21 -19 43 9 23 31 11 31 -16z"/>
<path d="M3680 3184 c0 -30 5 -54 10 -54 6 0 10 8 10 18 0 13 7 18 23 18 19
-1 22 4 22 34 0 32 -2 35 -32 37 l-33 1 0 -54z m55 16 c0 -13 -6 -25 -12 -27
-16 -6 -27 21 -19 43 9 23 31 11 31 -16z"/>
<path d="M3770 3200 c0 -22 5 -40 10 -40 6 0 10 7 10 15 0 8 5 15 10 15 6 0
13 -7 16 -15 4 -8 10 -15 15 -15 5 0 2 11 -7 25 -14 21 -14 28 -3 43 11 14 9
13 -9 -2 -19 -17 -22 -17 -22 -3 0 10 -4 17 -10 17 -5 0 -10 -18 -10 -40z"/>
<path d="M3870 3233 c43 -14 45 -16 20 -22 -16 -4 -26 -15 -28 -29 -3 -19 1
-22 27 -20 25 2 31 7 31 24 0 39 -11 54 -39 53 -14 0 -19 -3 -11 -6z m34 -48
c-4 -8 -12 -15 -20 -15 -8 0 -14 7 -14 15 0 8 9 15 20 15 13 0 18 -5 14 -15z"/>
<path d="M3990 3232 c0 -6 5 -14 11 -17 7 -5 5 -15 -6 -31 -9 -13 -11 -24 -5
-24 6 0 13 7 17 15 5 14 8 14 25 -2 19 -17 19 -17 7 9 -9 22 -9 31 1 43 7 9 8
15 2 15 -6 0 -12 -6 -15 -12 -3 -10 -7 -10 -20 1 -10 8 -17 9 -17 3z"/>
<path d="M4074 3226 c-3 -8 -4 -25 -2 -38 2 -17 9 -23 28 -23 22 0 25 4 25 35
0 29 -4 36 -23 38 -13 2 -24 -3 -28 -12z m41 -26 c0 -13 -6 -25 -12 -27 -16
-6 -27 21 -19 43 9 23 31 11 31 -16z"/>
<path d="M4170 3211 c0 -17 -4 -33 -10 -36 -5 -3 -10 -14 -9 -23 0 -11 3 -12
6 -4 2 6 17 12 33 12 16 0 31 -6 34 -12 4 -7 4 -2 1 12 -2 14 -5 37 -5 53 0
22 -4 27 -25 27 -21 0 -25 -5 -25 -29z m40 -11 c0 -20 -5 -30 -15 -30 -10 0
-15 10 -15 30 0 20 5 30 15 30 10 0 15 -10 15 -30z"/>
<path d="M4250 3199 c0 -38 2 -40 27 -37 35 4 45 37 14 45 -12 3 -21 12 -21
19 0 8 -4 14 -10 14 -5 0 -10 -18 -10 -41z m48 -17 c2 -7 -3 -12 -12 -12 -9 0
-16 7 -16 16 0 17 22 14 28 -4z"/>
<path d="M4421 3202 c-1 -42 0 -43 27 -40 34 4 39 41 5 46 -12 2 -24 11 -26
20 -3 9 -5 -2 -6 -26z m44 -12 c3 -6 -1 -13 -10 -16 -19 -8 -30 0 -20 15 8 14
22 14 30 1z"/>
<path d="M4490 3200 c0 -22 5 -40 10 -40 6 0 10 18 10 40 0 22 -4 40 -10 40
-5 0 -10 -18 -10 -40z"/>
<path d="M792 3118 c6 -16 55 -34 65 -24 10 10 -26 36 -50 36 -10 0 -17 -5
-15 -12z"/>
<path d="M915 2974 c-9 -9 -14 -18 -12 -20 7 -8 35 7 41 22 7 19 -9 18 -29 -2z"/>
<path d="M1144 2919 c-19 -22 -13 -43 19 -63 12 -8 21 -5 36 8 26 23 26 38 3
59 -24 22 -35 21 -58 -4z m60 -11 c8 -14 7 -21 -6 -34 -30 -30 -75 9 -48 42
16 18 39 15 54 -8z"/>
<path d="M1384 2919 c-13 -15 -16 -24 -8 -36 20 -32 41 -38 63 -19 26 23 26
38 3 59 -24 22 -35 21 -58 -4z m60 -11 c8 -14 7 -21 -6 -34 -30 -30 -75 9 -48
42 16 18 39 15 54 -8z"/>
<path d="M3343 2794 c-7 -3 -9 -18 -6 -41 4 -24 2 -38 -8 -44 -9 -5 -10 -9 -2
-9 26 0 43 14 43 36 0 13 9 29 20 36 11 7 20 16 20 20 0 9 -48 9 -67 2z"/>
<path d="M3460 2761 c0 -6 5 -13 11 -17 8 -4 8 -9 0 -17 -13 -13 -14 -27 -2
-27 11 0 21 38 14 56 -6 16 -23 19 -23 5z"/>
<path d="M3700 2735 c11 -13 9 -21 -9 -45 -12 -17 -18 -30 -14 -31 15 -1 38
-7 54 -13 9 -4 21 0 29 9 15 18 51 20 68 3 7 -7 12 -24 12 -38 0 -27 27 -60
48 -60 7 0 12 -6 12 -14 0 -19 27 -46 46 -46 8 0 14 10 14 25 0 15 9 31 25 41
20 13 23 19 14 30 -6 8 -20 14 -30 14 -10 0 -21 10 -25 22 -4 13 -21 40 -38
61 -27 34 -34 38 -61 32 -51 -11 -80 -9 -115 8 -41 21 -46 21 -30 2z m165 -25
c3 -5 1 -10 -4 -10 -6 0 -11 5 -11 10 0 6 2 10 4 10 3 0 8 -4 11 -10z"/>
<path d="M3004 2676 c-3 -9 -12 -16 -20 -16 -8 0 -14 -6 -14 -12 0 -26 18 -40
53 -43 20 -2 45 -6 56 -10 18 -5 19 -3 14 31 -4 25 -2 39 8 45 10 6 5 9 -16 9
-16 0 -40 3 -52 6 -16 4 -25 1 -29 -10z m31 -31 c0 -14 -5 -25 -12 -25 -14 0
-22 20 -15 38 8 22 27 13 27 -13z"/>
<path d="M765 2570 c37 -24 59 -26 51 -4 -3 9 -6 18 -6 20 0 2 -17 4 -37 4
l-38 0 30 -20z"/>
<path d="M4080 2546 c0 -9 5 -16 10 -16 6 0 10 4 10 9 0 6 -4 13 -10 16 -5 3
-10 -1 -10 -9z"/>
<path d="M3536 2484 c-21 -21 -20 -34 3 -34 20 0 51 25 51 41 0 15 -37 10 -54
-7z m24 -14 c-8 -5 -17 -7 -19 -4 -3 3 1 9 9 14 8 5 17 7 19 4 3 -3 -1 -9 -9
-14z"/>
<path d="M3946 2475 c-9 -9 -16 -21 -16 -26 0 -14 27 -11 44 6 13 14 16 13 25
-2 9 -16 10 -16 11 5 0 12 -4 22 -9 22 -5 0 -16 3 -24 6 -8 3 -22 -2 -31 -11z"/>
<path d="M3730 2469 c0 -5 4 -8 9 -5 11 7 20 -14 14 -32 -3 -6 -10 -9 -15 -6
-7 4 -8 2 -4 -4 17 -28 42 4 31 39 -7 20 -35 27 -35 8z"/>
<path d="M738 2413 c-3 -4 -3 -33 -1 -63 2 -30 4 -68 5 -84 l1 -29 18 24 c15
21 16 26 3 40 -17 19 -18 51 -3 66 8 8 7 17 -4 33 -8 12 -17 18 -19 13z"/>
<path d="M3995 2384 c-10 -11 -14 -25 -11 -40 4 -13 1 -24 -7 -27 -6 -3 3 -6
21 -6 17 -1 32 -5 32 -10 0 -5 9 -13 21 -16 11 -4 24 -16 28 -27 7 -19 9 -19
23 -4 25 24 30 20 22 -19 -6 -34 6 -49 21 -25 3 6 0 10 -7 10 -8 0 -9 3 -3 8
6 4 15 16 21 27 9 16 7 23 -12 37 -12 10 -27 18 -32 18 -6 0 -22 15 -36 33
-15 17 -31 38 -37 45 -13 16 -24 15 -44 -4z m15 -19 c0 -8 -4 -15 -10 -15 -5
0 -7 7 -4 15 4 8 8 15 10 15 2 0 4 -7 4 -15z"/>
<path d="M924 2346 c-10 -8 -16 -17 -12 -21 9 -10 61 9 66 23 5 17 -30 15 -54
-2z"/>
<path d="M3598 2333 c7 -3 16 -2 19 1 4 3 -2 6 -13 5 -11 0 -14 -3 -6 -6z"/>
<path d="M1140 2310 c-13 -9 -13 -11 0 -20 8 -5 20 -10 25 -10 6 0 17 5 25 10
13 9 13 11 0 20 -8 5 -19 10 -25 10 -5 0 -17 -5 -25 -10z"/>
<path d="M838 2303 c-16 -4 -15 -8 9 -39 17 -24 32 -34 44 -31 19 5 54 -25 42
-36 -6 -7 58 2 66 9 1 1 0 8 -4 14 -6 9 -10 9 -16 -1 -6 -10 -9 -11 -9 -1 0 6
-10 12 -23 12 -30 0 -47 17 -48 50 -2 23 -2 23 -6 3 -5 -26 -15 -29 -32 -10
-8 10 -7 17 1 25 12 12 7 13 -24 5z"/>
<path d="M4206 2291 c-3 -5 1 -11 9 -15 8 -3 15 -1 15 4 0 13 -18 22 -24 11z"/>
<path d="M4248 2233 c19 -8 14 -21 -13 -35 -24 -13 -24 -15 -9 -36 18 -26 39
-29 48 -4 3 9 11 25 18 35 11 15 10 20 -6 33 -11 8 -27 14 -35 13 -11 0 -12
-2 -3 -6z"/>
<path d="M750 2150 c1 -22 32 -57 57 -64 15 -5 28 -1 42 13 32 32 26 41 -27
41 -26 0 -53 5 -60 12 -9 9 -12 9 -12 -2z"/>
<path d="M4302 2080 c-11 -18 -13 -19 -42 -2 -29 16 -30 16 -52 -6 -18 -17
-20 -26 -12 -39 20 -32 41 -39 63 -19 11 10 27 16 34 13 11 -4 16 5 21 31 7
43 4 47 -12 22z m-37 -28 c8 -20 -19 -47 -39 -39 -26 10 -32 38 -12 53 21 15
42 9 51 -14z"/>
<path d="M4062 2040 c-14 -24 -49 -26 -72 -5 -15 14 -19 13 -35 -5 -23 -25
-13 -68 18 -75 27 -7 127 39 127 59 0 20 -11 46 -19 46 -3 0 -12 -9 -19 -20z"/>
<path d="M4407 2031 c8 -31 40 -46 69 -32 13 6 24 16 24 22 0 9 -3 9 -14 0
-15 -12 -42 -6 -68 16 -15 13 -16 13 -11 -6z"/>
<path d="M843 1988 c2 -7 10 -12 17 -10 7 1 18 -3 26 -9 19 -16 18 -4 -2 15
-18 19 -48 21 -41 4z"/>
<path d="M804 1729 c-13 -15 -16 -24 -8 -36 20 -32 41 -38 63 -19 26 23 26 38
3 59 -24 22 -35 21 -58 -4z m60 -11 c8 -14 7 -21 -6 -34 -30 -30 -75 9 -48 42
16 18 39 15 54 -8z"/>
<path d="M1156 1524 c-20 -19 -20 -34 -2 -34 16 0 46 26 46 41 0 14 -27 11
-44 -7z"/>
<path d="M1964 1499 c-19 -22 -13 -43 19 -63 12 -8 21 -5 36 8 26 23 26 38 3
59 -24 22 -35 21 -58 -4z m60 -11 c8 -14 7 -21 -6 -34 -30 -30 -75 9 -48 42
16 18 39 15 54 -8z"/>
<path d="M1366 1444 c-18 -17 -21 -34 -7 -34 5 0 17 7 25 16 18 17 21 34 7 34
-5 0 -17 -7 -25 -16z"/>
<path d="M1097 1162 c-10 -10 -17 -22 -17 -26 0 -14 83 -106 101 -111 11 -4
19 -14 19 -24 0 -10 11 -28 25 -41 27 -26 47 -22 69 12 12 20 -17 68 -45 75
-11 3 -19 14 -19 25 0 20 -86 108 -106 108 -6 0 -18 -8 -27 -18z m50 -3 c15
-15 -27 -59 -44 -46 -16 12 -16 30 -1 45 15 15 31 15 45 1z m133 -194 c-7 -8
-20 -15 -29 -15 -11 0 -8 5 9 14 33 19 35 19 20 1z"/>
<path d="M1575 1131 c-6 -20 3 -51 15 -51 13 0 21 35 14 54 -8 21 -21 20 -29
-3z"/>
<path d="M1805 1023 c-10 -10 -28 -16 -40 -15 -29 4 -63 -34 -49 -55 20 -32
41 -38 63 -19 12 11 21 27 21 38 0 10 4 18 9 18 11 0 26 39 18 46 -2 3 -13 -3
-22 -13z m-15 -59 c0 -34 -54 -41 -66 -9 -11 27 13 45 41 31 14 -6 25 -16 25
-22z"/>
<path d="M2086 954 c-9 -8 -16 -32 -16 -52 0 -26 -7 -43 -21 -55 -12 -11 -18
-25 -15 -35 4 -12 -2 -21 -17 -27 -27 -12 -33 -47 -13 -76 18 -26 9 -49 -33
-85 -21 -18 -24 -26 -15 -40 18 -31 42 -40 64 -26 24 15 30 15 30 2 0 -5 -7
-10 -15 -10 -14 0 -35 -29 -35 -49 0 -19 32 -41 59 -41 32 0 66 32 58 54 -4 9
3 16 18 20 17 4 33 27 60 79 32 66 35 80 31 130 l-6 57 49 -2 c52 -2 81 13 81
42 0 25 -25 42 -57 38 -21 -2 -29 -9 -32 -28 -3 -22 -16 -39 -31 -40 -3 0 -16
21 -29 46 -19 36 -22 47 -12 54 10 5 3 15 -25 34 -45 30 -57 32 -78 10z m244
-114 c0 -17 -23 -34 -33 -24 -2 2 -2 15 0 29 6 27 33 24 33 -5z m-244 -24 c7
-31 -4 -55 -17 -35 -12 19 -11 59 1 59 5 0 12 -11 16 -24z m-64 -168 c-7 -7
-12 -8 -12 -2 0 14 12 26 19 19 2 -3 -1 -11 -7 -17z m-18 -34 c8 -22 -3 -56
-17 -51 -22 7 -31 35 -18 51 17 20 27 20 35 0z m106 -109 c0 -8 -4 -17 -10
-20 -6 -4 -10 5 -10 20 0 15 4 24 10 20 6 -3 10 -12 10 -20z m-80 -16 c0 -6
-4 -7 -10 -4 -5 3 -10 11 -10 16 0 6 5 7 10 4 6 -3 10 -11 10 -16z"/>
<path d="M1876 695 c-21 -22 -20 -38 5 -61 22 -20 43 -13 63 19 24 38 -35 74
-68 42z m64 -28 c0 -7 -5 -18 -12 -25 -18 -18 -36 -15 -48 7 -14 28 13 55 41
41 10 -6 19 -16 19 -23z"/>
<path d="M1466 684 c-9 -8 -16 -22 -16 -29 0 -18 27 -45 45 -45 18 0 45 27 45
45 0 18 -27 45 -45 45 -7 0 -21 -7 -29 -16z m58 -16 c8 -14 7 -21 -6 -34 -30
-30 -75 9 -48 42 16 18 39 15 54 -8z"/>
<path d="M252 3558 c-17 -17 -15 -63 4 -79 22 -18 48 0 52 35 6 45 -29 71 -56
44z m38 -18 c11 -21 -2 -60 -20 -60 -13 0 -22 37 -15 60 3 11 10 20 15 20 5 0
14 -9 20 -20z"/>
<path d="M368 3545 c-16 -36 4 -78 35 -73 17 2 22 10 22 33 0 23 -5 31 -25 36
l-25 6 25 11 c25 11 25 11 2 11 -15 1 -26 -8 -34 -24z m49 -31 c8 -21 -13 -42
-28 -27 -13 13 -5 43 11 43 6 0 13 -7 17 -16z"/>
<path d="M320 3480 c0 -5 5 -10 10 -10 6 0 10 5 10 10 0 6 -4 10 -10 10 -5 0
-10 -4 -10 -10z"/>
<path d="M252 3058 c-17 -17 -15 -63 4 -79 22 -18 48 0 52 35 6 45 -29 71 -56
44z m38 -18 c11 -21 -2 -60 -20 -60 -5 0 -12 9 -15 20 -7 23 2 60 15 60 5 0
14 -9 20 -20z"/>
<path d="M381 3041 c-26 -36 -26 -41 -1 -41 11 0 20 -7 20 -15 0 -21 18 -19
22 3 5 26 -3 82 -12 82 -5 0 -18 -13 -29 -29z m19 -16 c0 -8 -7 -15 -16 -15
-14 0 -14 3 -4 15 7 8 14 15 16 15 2 0 4 -7 4 -15z"/>
<path d="M320 2980 c0 -5 5 -10 10 -10 6 0 10 5 10 10 0 6 -4 10 -10 10 -5 0
-10 -4 -10 -10z"/>
<path d="M252 2558 c-17 -17 -15 -63 4 -79 22 -18 48 0 52 35 6 45 -29 71 -56
44z m38 -18 c11 -21 -2 -60 -20 -60 -13 0 -22 37 -15 60 3 11 10 20 15 20 5 0
14 -9 20 -20z"/>
<path d="M366 2562 c-3 -6 2 -8 14 -5 34 9 36 -24 4 -58 l-28 -29 40 1 c31 2
34 3 10 6 l-28 5 22 23 c12 13 20 31 18 42 -3 19 -42 30 -52 15z"/>
<path d="M320 2480 c0 -5 5 -10 10 -10 6 0 10 5 10 10 0 6 -4 10 -10 10 -5 0
-10 -4 -10 -10z"/>
<path d="M252 2048 c-17 -17 -15 -63 4 -79 22 -18 48 0 52 35 6 45 -29 71 -56
44z m38 -18 c11 -21 -2 -60 -20 -60 -13 0 -22 37 -15 60 3 11 10 20 15 20 5 0
14 -9 20 -20z"/>
<path d="M372 2048 c-17 -17 -15 -63 4 -79 22 -18 48 0 52 35 6 45 -29 71 -56
44z m43 -18 c7 -23 -2 -60 -15 -60 -18 0 -31 39 -20 60 6 11 15 20 20 20 5 0
12 -9 15 -20z"/>
<path d="M320 1970 c0 -5 5 -10 10 -10 6 0 10 5 10 10 0 6 -4 10 -10 10 -5 0
-10 -4 -10 -10z"/>
<path d="M234 1547 c-3 -8 -4 -30 -2 -49 2 -28 7 -33 28 -33 23 0 25 4 25 45
0 39 -3 45 -23 48 -13 2 -24 -3 -28 -11z m41 -38 c0 -24 -5 -34 -15 -34 -16 0
-25 37 -16 62 10 26 31 8 31 -28z"/>
<path d="M360 1552 c0 -6 8 -8 19 -5 31 8 35 -17 7 -46 -34 -35 -33 -41 7 -40
25 1 27 3 9 6 l-24 5 22 23 c29 30 23 59 -13 63 -15 2 -27 -1 -27 -6z"/>
<path d="M143 1503 c15 -2 37 -2 50 0 12 2 0 4 -28 4 -27 0 -38 -2 -22 -4z"/>
<path d="M234 1037 c-3 -8 -4 -30 -2 -49 2 -28 7 -33 28 -33 23 0 25 4 25 45
0 39 -3 45 -23 48 -13 2 -24 -3 -28 -11z m41 -38 c0 -24 -5 -34 -15 -34 -16 0
-25 37 -16 62 10 26 31 8 31 -28z"/>
<path d="M377 1021 c-22 -37 -21 -41 3 -41 12 0 20 -7 20 -17 0 -15 2 -14 14
3 8 10 10 21 5 22 -5 2 -9 17 -9 33 0 37 -11 37 -33 0z m23 -11 c0 -11 -7 -20
-15 -20 -13 0 -14 4 -5 20 6 11 13 20 15 20 3 0 5 -9 5 -20z"/>
<path d="M143 993 c15 -2 37 -2 50 0 12 2 0 4 -28 4 -27 0 -38 -2 -22 -4z"/>
<path d="M234 537 c-3 -8 -4 -30 -2 -49 2 -28 7 -33 28 -33 23 0 25 4 25 45 0
39 -3 45 -23 48 -13 2 -24 -3 -28 -11z m41 -38 c0 -24 -5 -34 -15 -34 -16 0
-25 37 -16 62 10 26 31 8 31 -28z"/>
<path d="M371 536 c-17 -20 -10 -67 11 -80 25 -15 57 17 42 42 -6 9 -17 17
-25 18 -9 1 -10 0 -1 -3 18 -6 15 -53 -3 -53 -8 0 -15 5 -16 10 -5 44 -1 56
21 67 23 12 24 13 4 13 -12 0 -27 -6 -33 -14z"/>
<path d="M143 493 c15 -2 37 -2 50 0 12 2 0 4 -28 4 -27 0 -38 -2 -22 -4z"/>
<path d="M734 217 c-3 -8 -4 -30 -2 -49 2 -28 7 -33 28 -33 23 0 25 4 25 45 0
39 -3 45 -23 48 -13 2 -24 -3 -28 -11z m41 -38 c0 -24 -5 -34 -15 -34 -16 0
-25 37 -16 62 10 26 31 8 31 -28z"/>
<path d="M860 211 c0 -13 8 -21 23 -23 14 -2 22 -10 22 -23 0 -14 -6 -20 -22
-19 -13 0 -23 -3 -23 -8 0 -5 12 -8 28 -6 21 2 28 9 30 31 3 22 -1 30 -17 34
-28 7 -27 21 2 26 16 3 13 5 -10 6 -26 1 -33 -3 -33 -18z"/>
<path d="M954 216 c-3 -8 -4 -29 -2 -48 2 -25 8 -34 25 -36 31 -5 51 37 35 73
-13 27 -49 34 -58 11z m41 -37 c0 -24 -5 -34 -15 -34 -16 0 -25 37 -16 62 10
26 31 8 31 -28z"/>
<path d="M1294 217 c-3 -8 -4 -30 -2 -49 2 -28 7 -33 28 -33 23 0 25 4 25 45
0 39 -3 45 -23 48 -13 2 -24 -3 -28 -11z m41 -38 c0 -24 -5 -34 -15 -34 -16 0
-25 37 -16 62 10 26 31 8 31 -28z"/>
<path d="M1420 222 c0 -6 8 -8 19 -5 31 8 35 -17 7 -46 -34 -35 -33 -41 7 -40
25 1 27 3 9 6 l-24 5 22 23 c29 30 23 59 -13 63 -15 2 -27 -1 -27 -6z"/>
<path d="M1510 211 c0 -13 8 -21 23 -23 31 -4 29 -40 -3 -50 -23 -6 -23 -7 5
-5 25 2 31 7 33 30 3 22 -1 30 -17 34 -28 7 -27 21 2 26 16 3 13 5 -10 6 -26
1 -33 -3 -33 -18z"/>
<path d="M1812 218 c-17 -17 -15 -63 4 -79 22 -18 48 0 52 35 6 45 -29 71 -56
44z m38 -18 c11 -21 -2 -60 -20 -60 -5 0 -12 9 -15 20 -7 23 2 60 15 60 5 0
14 -9 20 -20z"/>
<path d="M1932 218 c-17 -17 -15 -63 4 -79 22 -18 48 0 52 35 6 45 -29 71 -56
44z m43 -18 c7 -23 -2 -60 -15 -60 -5 0 -14 9 -20 20 -11 21 2 60 20 60 5 0
12 -9 15 -20z"/>
<path d="M2022 218 c-17 -17 -15 -63 4 -79 22 -18 48 0 52 35 6 45 -29 71 -56
44z m43 -18 c8 -26 -3 -60 -20 -60 -17 0 -28 34 -20 60 3 11 12 20 20 20 8 0
17 -9 20 -20z"/>
<path d="M2372 218 c-17 -17 -15 -63 4 -79 22 -18 48 0 52 35 6 45 -29 71 -56
44z m38 -18 c11 -21 -2 -60 -20 -60 -5 0 -12 9 -15 20 -7 23 2 60 15 60 5 0
14 -9 20 -20z"/>
<path d="M2486 222 c-3 -6 2 -8 14 -5 34 9 36 -24 4 -58 l-28 -29 40 1 c31 2
34 3 10 6 l-28 5 22 23 c12 13 20 31 18 42 -3 19 -42 30 -52 15z"/>
<path d="M2580 211 c0 -11 9 -21 21 -24 28 -8 21 -39 -11 -48 l-25 -7 26 -1
c49 -2 65 54 19 66 -27 7 -25 21 3 26 19 4 18 4 -5 6 -21 1 -28 -4 -28 -18z"/>
<path d="M2922 218 c-17 -17 -15 -63 4 -79 22 -18 48 0 52 35 6 45 -29 71 -56
44z m38 -18 c11 -21 -2 -60 -20 -60 -5 0 -12 9 -15 20 -7 23 2 60 15 60 5 0
14 -9 20 -20z"/>
<path d="M3040 212 c0 -9 10 -22 21 -27 28 -13 27 -27 -2 -42 -23 -12 -23 -13
-3 -13 46 0 57 56 14 67 -27 7 -25 21 3 26 19 4 18 4 -5 6 -21 1 -28 -4 -28
-17z"/>
<path d="M3132 218 c-17 -17 -15 -63 4 -79 22 -18 48 0 52 35 6 45 -29 71 -56
44z m43 -18 c8 -26 -3 -60 -20 -60 -17 0 -28 34 -20 60 3 11 12 20 20 20 8 0
17 -9 20 -20z"/>
<path d="M3482 218 c-17 -17 -15 -63 4 -79 22 -18 48 0 52 35 6 45 -29 71 -56
44z m38 -18 c11 -21 -2 -60 -20 -60 -5 0 -12 9 -15 20 -7 23 2 60 15 60 5 0
14 -9 20 -20z"/>
<path d="M3613 223 c32 -5 31 -3 12 -50 -8 -20 -13 -38 -10 -41 4 -4 45 81 45
94 0 2 -17 3 -37 3 -31 -2 -33 -3 -10 -6z"/>
<path d="M3690 211 c0 -11 9 -21 21 -24 28 -8 21 -39 -11 -48 l-25 -7 26 -1
c49 -2 65 54 19 66 -27 7 -25 21 3 26 19 4 18 4 -5 6 -21 1 -28 -4 -28 -18z"/>
<path d="M4030 219 c0 -5 5 -7 10 -4 6 4 10 -10 10 -34 0 -22 -5 -42 -12 -44
-7 -3 3 -5 22 -5 19 0 27 2 18 5 -14 3 -18 15 -18 49 0 32 -4 44 -15 44 -8 0
-15 -5 -15 -11z"/>
<path d="M4152 218 c-17 -17 -15 -63 4 -79 22 -18 48 0 52 35 6 45 -29 71 -56
44z m43 -18 c7 -23 -2 -60 -15 -60 -18 0 -31 39 -20 60 6 11 15 20 20 20 5 0
12 -9 15 -20z"/>
<path d="M4242 218 c-17 -17 -15 -63 4 -79 22 -18 48 0 52 35 6 45 -29 71 -56
44z m43 -18 c8 -26 -3 -60 -20 -60 -17 0 -28 34 -20 60 3 11 12 20 20 20 8 0
17 -9 20 -20z"/>
<path d="M4590 219 c0 -5 5 -7 10 -4 6 4 10 -10 10 -34 0 -22 -5 -42 -12 -44
-7 -3 3 -5 22 -5 19 0 27 2 18 5 -14 3 -18 15 -18 49 0 32 -4 44 -15 44 -8 0
-15 -5 -15 -11z"/>
<path d="M4706 222 c-3 -6 2 -8 14 -5 34 9 36 -24 4 -58 l-28 -29 40 1 c31 2
34 3 10 6 l-28 5 22 23 c12 13 20 31 18 42 -3 19 -42 30 -52 15z"/>
<path d="M4800 211 c0 -11 9 -21 21 -24 28 -8 21 -39 -11 -48 l-25 -7 26 -1
c49 -2 65 54 19 66 -27 7 -25 21 3 26 19 4 18 4 -5 6 -21 1 -28 -4 -28 -18z"/>
<path d="M5150 219 c0 -5 5 -7 10 -4 6 4 10 -10 10 -34 0 -22 -5 -42 -12 -44
-7 -3 3 -5 22 -5 19 0 27 2 18 5 -14 3 -18 15 -18 49 0 32 -4 44 -15 44 -8 0
-15 -5 -15 -11z"/>
<path d="M5270 212 c0 -9 10 -22 21 -27 28 -13 27 -27 -2 -42 -23 -12 -23 -13
-3 -13 46 0 57 56 14 67 -27 7 -25 21 3 26 19 4 18 4 -5 6 -21 1 -28 -4 -28
-17z"/>
<path d="M5362 218 c-17 -17 -15 -63 4 -79 22 -18 48 0 52 35 6 45 -29 71 -56
44z m43 -18 c8 -26 -3 -60 -20 -60 -8 0 -17 9 -20 20 -8 26 3 60 20 60 8 0 17
-9 20 -20z"/>
<path d="M643 173 c15 -2 37 -2 50 0 12 2 0 4 -28 4 -27 0 -38 -2 -22 -4z"/>
<path d="M1203 173 c15 -2 37 -2 50 0 12 2 0 4 -28 4 -27 0 -38 -2 -22 -4z"/>
<path d="M1880 140 c0 -5 5 -10 10 -10 6 0 10 5 10 10 0 6 -4 10 -10 10 -5 0
-10 -4 -10 -10z"/>
<path d="M2440 140 c0 -5 5 -10 10 -10 6 0 10 5 10 10 0 6 -4 10 -10 10 -5 0
-10 -4 -10 -10z"/>
<path d="M2990 140 c0 -5 5 -10 10 -10 6 0 10 5 10 10 0 6 -4 10 -10 10 -5 0
-10 -4 -10 -10z"/>
<path d="M3550 140 c0 -5 5 -10 10 -10 6 0 10 5 10 10 0 6 -4 10 -10 10 -5 0
-10 -4 -10 -10z"/>
<path d="M4100 140 c0 -5 5 -10 10 -10 6 0 10 5 10 10 0 6 -4 10 -10 10 -5 0
-10 -4 -10 -10z"/>
<path d="M4660 140 c0 -5 5 -10 10 -10 6 0 10 5 10 10 0 6 -4 10 -10 10 -5 0
-10 -4 -10 -10z"/>
<path d="M5220 140 c0 -5 5 -10 10 -10 6 0 10 5 10 10 0 6 -4 10 -10 10 -5 0
-10 -4 -10 -10z"/>
</g>
</svg>
